<svg width="351" height="105" viewBox="0 0 351 105" fill="none" xmlns="http://www.w3.org/2000/svg">
<path d="M58.4781 23.504C59.2701 19.184 58.2621 15.656 55.4541 12.848C52.6461 10.04 48.4701 8.6 42.9981 8.6H23.7021L14.8461 59H36.1581C47.4621 59 54.9501 53.312 56.1741 44.888C56.9661 39.92 55.4541 36.104 51.6381 33.44C55.3101 31.208 57.6141 27.896 58.4781 23.504ZM40.6941 20.984C42.7821 20.984 44.2941 21.992 43.9341 24.368C43.5741 26.312 42.3501 27.392 40.2621 27.68L34.7181 27.752L35.9421 20.984H40.6941ZM42.1341 43.016C41.6301 45.248 39.8301 46.616 37.4541 46.616H31.4061L32.7021 39.416L39.6861 39.488C41.7021 39.776 42.4941 40.928 42.1341 43.016ZM58.4398 59H72.8398L81.6958 8.6H67.2958L58.4398 59ZM114.586 8.6L99.8978 28.04L103.282 8.6H88.8818L80.0258 59H94.4258L98.2418 37.328L107.89 59H122.938L111.346 33.872L131.29 8.6H114.586ZM167.415 8.6H134.655L125.799 59H158.919L161.223 45.752H142.503L143.511 40.136H160.071L162.375 27.176H145.815L146.751 21.704H165.111L167.415 8.6Z" fill="#243F60"/>
<path d="M6.408 52.6L3.96 66.568H15.84L9.432 103H23.832L30.24 66.568H42.12L44.568 52.6H6.408ZM66.1539 104.152C74.2179 104.152 80.9139 101.632 86.2419 96.52C91.6419 91.408 94.8819 85.36 95.9619 78.376C97.0419 71.68 95.3859 65.056 91.6419 59.944C87.8979 54.832 81.1299 51.448 72.8499 51.448C64.8579 51.448 58.1619 53.968 52.6899 59.008C47.2899 63.976 43.9779 69.952 42.8259 76.936C41.3859 85.936 44.3379 94.648 52.1139 100.12C56.0019 102.784 60.6819 104.152 66.1539 104.152ZM59.0259 86.584C57.0819 84.208 56.4339 81.328 57.0819 77.8C57.7299 74.272 59.3859 71.392 62.1219 69.088C64.8579 66.712 68.0259 65.56 71.5539 65.56C75.0819 65.56 77.8179 66.712 79.7619 69.088C81.7059 71.392 82.3539 74.272 81.7059 77.8C81.0579 81.328 79.4019 84.208 76.6659 86.584C73.9299 88.888 70.7619 90.04 67.2339 90.04C63.7059 90.04 60.9699 88.888 59.0259 86.584ZM117.489 104.152C123.393 104.152 128.433 102.568 132.537 99.4C136.713 96.232 139.305 91.84 140.313 86.152L146.217 52.6H131.817L126.201 84.568C125.553 88.312 123.177 90.184 119.073 90.184C115.041 90.184 113.313 88.312 113.961 84.568L119.577 52.6H105.177L99.2734 86.152C98.3374 91.336 99.6334 95.656 103.017 99.04C106.401 102.424 111.225 104.152 117.489 104.152ZM188.87 70.96C189.806 65.632 188.726 61.24 185.558 57.784C182.39 54.256 178.214 52.528 172.958 52.528H152.798L143.87 102.928H158.27L161.078 87.088H165.686L170.87 102.928H185.27L178.79 84.496C184.478 81.616 187.79 77.08 188.87 70.96ZM170.582 65.776C173.462 65.776 174.974 67.576 174.47 70.528C173.966 73.48 171.878 75.208 169.07 75.136H163.166L164.822 65.776H170.582Z" fill="#EBE104"/>
</svg>
