<svg width="81" height="50" viewBox="0 0 81 50" fill="none" xmlns="http://www.w3.org/2000/svg">
<path d="M38.679 35.2862H29.2368C28.4275 36.4937 27.4833 37.4329 26.4042 38.372C25.3251 39.3112 24.1111 39.9821 22.6273 40.3846C21.2785 40.9212 19.7947 41.1896 18.3109 41.1896C16.8272 41.1896 15.6132 40.9212 14.3992 40.3846C13.1852 39.8479 12.241 39.1771 11.4316 38.372C10.6223 37.4329 10.0828 36.4937 9.81298 35.2862C9.5432 34.0787 9.40832 32.8712 9.67809 31.5295C9.94787 30.1878 10.4874 28.9803 11.2967 27.7728C12.1061 26.5653 13.0503 25.6261 14.1294 24.6869C15.2085 23.8819 16.4225 23.211 17.9063 22.6744C19.2551 22.1377 20.7389 21.8694 22.0878 21.8694C23.5715 21.8694 24.9204 22.1377 25.9995 22.6744C27.2135 23.211 28.1577 23.8819 28.9671 24.6869C29.7764 25.4919 30.3159 26.5653 30.5857 27.7728C30.8555 28.9803 30.9904 30.1878 30.7206 31.5295C30.5857 32.3345 30.3159 33.1395 29.9113 33.9445L38.2743 20.5277C37.8697 19.8568 37.3301 19.186 36.7906 18.5152C35.3068 16.9051 33.5533 15.5635 31.2602 14.6243C29.102 13.6851 26.5391 13.1484 23.8413 13.1484C21.1436 13.1484 18.4458 13.6851 15.8829 14.6243C13.3201 15.5635 10.8921 16.9051 8.86877 18.5152C6.71056 20.1252 4.95702 22.1377 3.47325 24.2844C1.98948 26.5653 1.04526 28.8461 0.505706 31.3953C-0.0338453 33.9445 0.101051 36.2254 0.640603 38.5062C1.18015 40.7871 2.25925 42.6654 3.74302 44.2754C5.22679 45.8855 6.98033 47.2271 9.27342 48.1663C11.4316 49.1055 13.9945 49.6422 16.6923 49.6422C19.5249 49.6422 22.0878 49.1055 24.7855 48.1663C27.3484 47.2271 29.7764 45.8855 31.7997 44.2754C33.9579 42.6654 35.7115 40.6529 37.1952 38.5062C37.7348 37.567 38.2743 36.6279 38.8139 35.6887V35.2862H38.679Z" fill="white"/>
<path d="M80.3594 24.4187C79.8198 22.1378 78.7407 20.2595 77.257 18.6494C75.7732 17.0394 74.0197 15.6977 71.7266 14.7586C69.5684 13.8194 67.0055 13.2827 64.3077 13.2827C61.61 13.2827 58.9122 13.8194 56.3493 14.7586C53.7865 15.6977 51.3585 17.0394 49.3352 18.6494C47.177 20.2595 45.4234 22.272 43.9396 24.4187C43.4001 25.2237 42.9954 26.0287 42.5908 26.8337V27.907H51.898C52.7074 26.6995 53.6516 25.7604 54.7307 24.8212C55.8098 24.0162 57.0238 23.3453 58.5075 22.8087C59.8564 22.272 61.3402 22.0036 62.6891 22.0036C64.1728 22.0036 65.5217 22.272 66.6008 22.8087C67.8148 23.3453 68.759 24.0162 69.5683 24.8212C70.3777 25.6262 70.9172 26.6995 71.187 27.907C71.4568 29.1146 71.5917 30.3221 71.3219 31.6638C71.0521 33.0054 70.5126 34.2129 69.7032 35.4205C68.8939 36.628 67.9497 37.5672 66.8706 38.5063C65.7915 39.4455 64.5775 40.1163 63.0937 40.5189C61.7448 41.0555 60.2611 41.3239 58.7773 41.3239C57.2935 41.3239 56.0796 41.0555 54.8656 40.5189C53.6516 39.9822 52.7074 39.3113 51.898 38.5063C51.0887 37.5672 50.5491 36.628 50.2794 35.4205C50.0096 34.2129 49.8747 33.0054 50.1445 31.6638C50.2794 31.1271 50.4143 30.7246 50.5492 30.1879L42.7256 42.7997C43.1303 43.4705 43.535 44.0072 44.0745 44.5439C45.5583 46.1539 47.3118 47.4956 49.6049 48.4348C51.7631 49.3739 54.326 49.9106 57.0238 49.9106C59.8564 49.9106 62.4193 49.3739 65.117 48.4348C67.6799 47.4956 70.1079 46.1539 72.1312 44.5439C74.2894 42.9339 76.043 40.9214 77.5267 38.7747C79.0105 36.4938 79.9547 34.2129 80.4943 31.6638C81.0338 28.9804 80.8989 26.5654 80.3594 24.4187Z" fill="white"/>
<path d="M52.1678 4.15921C50.684 1.61002 47.8514 0 44.8838 0H30.8555L36.7905 8.45259H45.0187L52.4376 20.9302H62.4193L52.1678 4.15921Z" fill="white"/>
</svg>
