<svg width="351" height="97" viewBox="0 0 351 97" fill="none" xmlns="http://www.w3.org/2000/svg">
<path d="M66.4361 0.599997H35.1161L26.2601 51H40.6601L43.4681 35.088H60.0281L62.4761 21.12H45.9161L47.0681 14.568H63.9881L66.4361 0.599997ZM108.315 18.96C109.251 13.632 108.171 9.24 105.003 5.784C101.835 2.256 97.6588 0.527997 92.4028 0.527997H72.2428L63.3148 50.928H77.7148L80.5228 35.088H85.1308L90.3148 50.928H104.715L98.2348 32.496C103.923 29.616 107.235 25.08 108.315 18.96ZM90.0268 13.776C92.9068 13.776 94.4188 15.576 93.9148 18.528C93.4108 21.48 91.3228 23.208 88.5148 23.136H82.6108L84.2668 13.776H90.0268ZM149.931 0.599997H117.171L108.315 51H141.435L143.739 37.752H125.019L126.027 32.136H142.587L144.891 19.176H128.331L129.267 13.704H147.627L149.931 0.599997ZM188.814 0.599997H156.054L147.198 51H180.318L182.622 37.752H163.902L164.91 32.136H181.47L183.774 19.176H167.214L168.15 13.704H186.51L188.814 0.599997Z" fill="#243F60"/>
<path d="M3.408 44.6L0.96 58.568H12.84L6.432 95H20.832L27.24 58.568H39.12L41.568 44.6H3.408ZM82.0179 62.96C82.9539 57.632 81.8739 53.24 78.7059 49.784C75.5379 46.256 71.3619 44.528 66.1059 44.528H45.9459L37.0179 94.928H51.4179L54.2259 79.088H58.8339L64.0179 94.928H78.4179L71.9379 76.496C77.6259 73.616 80.9379 69.08 82.0179 62.96ZM63.7299 57.776C66.6099 57.776 68.1219 59.576 67.6179 62.528C67.1139 65.48 65.0259 67.208 62.2179 67.136H56.3139L57.9699 57.776H63.7299ZM128.064 95L120.864 44.6H104.016L79.1042 95H95.0162L97.8962 88.52H112.44L113.016 95H128.064ZM109.92 61.52L111.36 77H103.008L109.92 61.52ZM154.264 96.152C163.984 96.152 172.408 91.688 177.592 83.984L165.64 76.424C162.76 80.168 159.304 82.04 155.344 82.04C151.888 82.04 149.296 80.888 147.568 78.512C145.84 76.136 145.264 73.184 145.84 69.8C146.488 66.272 148.072 63.32 150.736 61.016C153.4 58.712 156.424 57.56 159.88 57.56C164.128 57.56 167.296 59.288 169.24 62.816L182.416 55.832C178.168 47.552 171.04 43.448 161.176 43.448C153.76 43.448 147.28 45.824 141.664 50.648C136.12 55.472 132.736 61.592 131.512 69.08C130.288 76.856 131.8 83.336 136.048 88.448C140.368 93.56 146.416 96.152 154.264 96.152ZM213.82 44.6L199.132 64.04L202.516 44.6H188.116L179.26 95H193.66L197.476 73.328L207.124 95H222.172L210.58 69.872L230.524 44.6H213.82ZM225.034 95H239.434L248.29 44.6H233.89L225.034 95ZM261.02 95L265.268 70.808L276.86 95H288.38L297.236 44.6H282.836L278.588 68.792L266.996 44.6H255.476L246.62 95H261.02ZM325.365 65.264L323.205 77.504H333.357C331.125 81.032 327.453 82.76 322.341 82.76C318.885 82.76 316.221 81.464 314.421 78.944C312.621 76.352 311.973 73.328 312.621 69.8C313.269 66.2 314.853 63.248 317.517 61.016C320.181 58.712 323.205 57.56 326.661 57.56C330.909 57.56 334.077 59.144 336.021 62.24L349.197 55.112C345.093 47.912 337.893 43.448 328.101 43.448C320.613 43.448 314.061 45.824 308.517 50.648C302.973 55.4 299.517 61.52 298.293 69.08C296.997 76.784 298.509 83.264 302.829 88.448C307.221 93.56 313.341 96.152 321.189 96.152C328.893 96.152 335.301 93.848 340.413 89.312C345.525 84.704 348.765 78.656 349.989 71.24L350.997 65.264H325.365Z" fill="#EBE104"/>
</svg>
