<svg version="1.1" id="Layer_1" xmlns="http://www.w3.org/2000/svg" xmlns:xlink="http://www.w3.org/1999/xlink" x="0px" y="0px"
	 viewBox="0 0 572.7 317.2" style="enable-background:new 0 0 572.7 317.2;" xml:space="preserve">
<style type="text/css">
	.st0{fill:#FFFFFF;}
</style>
<g>
	<g>
		<g>
			<path class="st0" d="M212.9,177.5h-15.6c-1.3,1.9-2.9,3.6-4.7,5c-1.8,1.4-3.9,2.6-6.1,3.4c-2.3,0.8-4.6,1.2-7,1.2
				c-2.3,0-4.5-0.4-6.4-1.2c-1.9-0.8-3.5-2-4.8-3.4c-1.2-1.4-2.1-3.1-2.7-5c-0.5-1.9-0.6-3.9-0.2-6.1c0.4-2.2,1.3-4.3,2.6-6.3
				c1.3-1.9,2.9-3.6,4.7-5c1.8-1.4,3.8-2.5,6.1-3.4c2.3-0.8,4.6-1.2,6.9-1.2c2.4,0,4.6,0.4,6.5,1.2c1.9,0.8,3.5,1.9,4.8,3.4
				c1.3,1.4,2.1,3.1,2.7,5c0.5,1.9,0.6,4,0.2,6.3c-0.3,1.4-0.7,2.7-1.3,3.9l13.8-22.2c-0.7-1.1-1.5-2.2-2.4-3.2
				c-2.4-2.7-5.4-4.9-9.1-6.5c-3.6-1.6-7.7-2.4-12.3-2.4c-4.5,0-8.9,0.8-13.1,2.4c-4.3,1.6-8.1,3.8-11.6,6.5c-3.5,2.7-6.5,6-8.9,9.6
				c-2.4,3.7-4.1,7.6-4.9,11.9c-0.8,4.2-0.7,8.1,0.2,11.8c1,3.7,2.7,6.9,5.1,9.6c2.4,2.7,5.4,4.9,9.1,6.5c3.6,1.6,7.7,2.4,12.2,2.4
				c4.6,0,9-0.8,13.2-2.4c4.3-1.6,8.1-3.8,11.6-6.5c3.5-2.7,6.5-6,8.9-9.6c1-1.5,1.8-3,2.6-4.6V177.5z"/>
			<path class="st0" d="M281.5,159.5c-1-3.7-2.7-6.9-5.1-9.6c-2.4-2.7-5.4-4.9-9.1-6.5c-3.6-1.6-7.7-2.4-12.3-2.4
				c-4.5,0-8.9,0.8-13.1,2.4c-4.3,1.6-8.1,3.8-11.6,6.5c-3.5,2.7-6.5,6-8.9,9.6c-0.8,1.3-1.6,2.6-2.2,3.9v1.7h15.3c0,0,0,0,0,0
				c1.3-1.9,2.9-3.6,4.7-5c1.8-1.4,3.8-2.5,6.1-3.4c2.3-0.8,4.6-1.2,6.9-1.2c2.4,0,4.6,0.4,6.5,1.2c1.9,0.8,3.5,1.9,4.8,3.4
				c1.3,1.4,2.1,3.1,2.7,5c0.5,1.9,0.6,4,0.2,6.3c-0.4,2.2-1.3,4.2-2.6,6.1c-1.3,1.9-2.9,3.6-4.7,5c-1.8,1.4-3.9,2.6-6.1,3.4
				c-2.3,0.8-4.6,1.2-7,1.2c-2.3,0-4.5-0.4-6.4-1.2c-1.9-0.8-3.5-2-4.8-3.4c-1.2-1.4-2.1-3.1-2.7-5c-0.5-1.9-0.6-3.9-0.2-6.1
				c0.2-0.8,0.4-1.6,0.7-2.4l-13,20.9c0.7,1,1.4,2,2.2,3c2.4,2.7,5.4,4.9,9.1,6.5c3.6,1.6,7.7,2.4,12.2,2.4c4.6,0,9-0.8,13.2-2.4
				c4.3-1.6,8.1-3.8,11.6-6.5c3.5-2.7,6.5-6,8.9-9.6c2.4-3.7,4.1-7.6,4.9-11.8C282.5,167.2,282.5,163.2,281.5,159.5z"/>
		</g>
		<g>
			<g>
				<g>
					<path class="st0" d="M283.7,88.1h-14.5c-1.2,1.8-2.6,3.3-4.3,4.6c-1.7,1.3-3.6,2.4-5.7,3.1c-2.1,0.8-4.3,1.1-6.5,1.1
						c-2.2,0-4.2-0.4-5.9-1.1c-1.8-0.8-3.3-1.8-4.4-3.1c-1.2-1.3-2-2.9-2.5-4.6c-0.5-1.8-0.6-3.6-0.2-5.7c0.4-2.1,1.2-4,2.4-5.8
						c1.2-1.8,2.6-3.3,4.3-4.6c1.7-1.3,3.6-2.3,5.6-3.1c2.1-0.8,4.2-1.1,6.4-1.1c2.2,0,4.3,0.4,6,1.1c1.8,0.8,3.3,1.8,4.4,3.1
						c1.2,1.3,2,2.9,2.5,4.6c0.5,1.8,0.5,3.7,0.1,5.8c-0.2,1.3-0.7,2.5-1.2,3.6l12.7-20.5c-0.6-1-1.4-2-2.2-3c-2.2-2.5-5-4.5-8.4-6
						c-3.4-1.5-7.1-2.2-11.4-2.2c-4.1,0-8.2,0.7-12.1,2.2c-3.9,1.5-7.5,3.5-10.8,6c-3.2,2.5-6,5.5-8.2,8.9c-2.3,3.4-3.8,7-4.5,11
						c-0.8,3.9-0.7,7.5,0.2,10.9c0.9,3.4,2.5,6.4,4.7,8.9c2.2,2.5,5,4.5,8.4,6c3.4,1.5,7.1,2.2,11.3,2.2c4.2,0,8.3-0.7,12.2-2.2
						c3.9-1.5,7.5-3.5,10.8-6c3.2-2.5,6-5.5,8.2-8.9c0.9-1.4,1.7-2.8,2.4-4.2V88.1z"/>
					<path class="st0" d="M347,71.5c-0.9-3.4-2.5-6.4-4.7-8.9c-2.2-2.5-5-4.5-8.4-6c-3.4-1.5-7.1-2.2-11.4-2.2
						c-4.1,0-8.2,0.7-12.1,2.2c-3.9,1.5-7.5,3.5-10.8,6c-3.2,2.5-6,5.5-8.2,8.9c-0.8,1.2-1.5,2.4-2.1,3.6v1.6h14.1c0,0,0,0,0,0
						c1.2-1.8,2.6-3.3,4.3-4.6c1.7-1.3,3.6-2.3,5.6-3.1c2.1-0.8,4.2-1.1,6.4-1.1c2.2,0,4.3,0.4,6,1.1c1.8,0.8,3.3,1.8,4.4,3.1
						c1.2,1.3,2,2.9,2.5,4.6c0.5,1.8,0.5,3.7,0.1,5.8c-0.4,2-1.2,3.9-2.4,5.7c-1.2,1.8-2.6,3.3-4.3,4.6c-1.7,1.3-3.6,2.4-5.7,3.1
						c-2.1,0.8-4.3,1.1-6.5,1.1c-2.2,0-4.2-0.4-5.9-1.1c-1.8-0.8-3.3-1.8-4.4-3.1c-1.2-1.3-2-2.9-2.5-4.6c-0.5-1.8-0.6-3.6-0.2-5.7
						c0.2-0.8,0.4-1.5,0.6-2.3l-12,19.3c0.6,1,1.3,1.9,2,2.7c2.2,2.5,5,4.5,8.4,6c3.4,1.5,7.1,2.2,11.3,2.2c4.2,0,8.3-0.7,12.2-2.2
						c3.9-1.5,7.5-3.5,10.8-6c3.2-2.5,6-5.5,8.2-8.9c2.3-3.4,3.8-7,4.5-10.9C348,78.6,347.9,74.9,347,71.5z"/>
				</g>
				<g>
					<path class="st0" d="M304.1,40.5c-2.3-3.9-6.6-6.3-11.1-6.3h-21.4l9,12.9h12.4l11.2,19.1h15.2L304.1,40.5z"/>
				</g>
			</g>
			<path class="st0" d="M342.5,152.5c-0.6-2.3-1.7-4.3-3.1-6c-1.5-1.7-3.3-3-5.6-4c-2.2-1-4.7-1.5-7.5-1.5h-31.9l-2.9,14.5h31.9
				c1.2,0,2.2,0.4,3,1.2c0.8,0.8,1.1,1.9,0.8,3.1l-0.6,3.2c-0.2,1.2-0.9,2.3-2.1,3.2c-1.1,0.9-2.3,1.3-3.5,1.3h-31.9l-6.8,34.2h15.4
				l3.9-20h6.6l9.3,20h18.1l-5.6-11.9l-4.3-9.2c2.1-0.7,4.1-1.7,5.9-2.9c1.8-1.2,3.4-2.5,4.8-4.1c1.4-1.5,2.5-3.2,3.5-5
				c1-1.8,1.6-3.7,2-5.6l0.6-3.2C343.2,157.2,343.1,154.8,342.5,152.5z"/>
			<path class="st0" d="M445.4,177.9h28.1l2.9-14.5h-29c0.2,3.1,0,6.3-0.7,9.6C446.4,174.7,446,176.4,445.4,177.9z"/>
			<path class="st0" d="M440.5,188.1c-3,4.5-6.7,8.5-11,11.9c-0.7,0.6-1.5,1.1-2.3,1.7h53l2.8-14.3h-42.1
				C440.8,187.6,440.6,187.9,440.5,188.1z"/>
			<polygon class="st0" points="354.2,141 342.2,201.7 357.6,201.7 369.6,141 			"/>
			<path class="st0" d="M436.3,141c1,0.9,2,1.9,2.9,2.9c3,3.4,5.2,7.3,6.6,11.6h46.2L495,141H436.3z"/>
			<path class="st0" d="M436.5,159.5c-1-3.7-2.7-6.9-5.1-9.6c-2.4-2.7-5.4-4.9-9.1-6.5c-3.6-1.6-7.7-2.4-12.2-2.4h-29.6l-12,60.7
				h29.6c4.5,0,8.9-0.8,13.1-2.4c4.3-1.6,8.1-3.8,11.6-6.5c3.5-2.7,6.5-6,8.9-9.6c2.4-3.7,4.1-7.6,4.9-11.8
				C437.6,167.2,437.5,163.2,436.5,159.5z M421.3,171.4c-0.4,2.2-1.3,4.2-2.6,6.2c-1.3,1.9-2.9,3.6-4.7,5c-1.8,1.4-3.9,2.6-6.2,3.4
				c-2.3,0.9-4.5,1.3-6.8,1.3h-14.3l6.3-31.9h14.3c2.3,0,4.4,0.4,6.3,1.2c1.9,0.8,3.5,1.9,4.8,3.4c1.3,1.4,2.2,3.1,2.7,5
				C421.7,167.1,421.8,169.2,421.3,171.4z"/>
			<path class="st0" d="M130.7,166.9h-18.8l-5.3,13.6h15.9h3.4c0,0-2.5,4.7-5.5,5.7c-9.1,2.8-15.8,0.4-17.1-0.1
				c-2.1-0.9-3.8-2.1-5.2-3.6c-1.4-1.5-2.4-3.3-3-5.4c-0.6-2.1-0.6-4.4-0.2-6.8c0.5-2.3,1.4-4.6,2.8-6.7c1.4-2.1,3.1-3.9,5.1-5.4
				c2-1.5,4.2-2.8,6.7-3.7c2.2-0.8,4.3-1.3,6.5-1.3v0h0.4c0.1,0,0.3,0,0.4,0h15.4l0,0h15.3l5.6-15.4H120c-4.8,0-9.6,0.9-14.2,2.6
				c-4.6,1.7-8.8,4.1-12.6,7c-3.8,3-7,6.4-9.6,10.4c-2.6,4-4.4,8.2-5.3,12.7c-0.9,4.6-0.8,8.8,0.2,12.8c1.1,4,2.9,7.4,5.5,10.3
				c2.6,2.9,5.9,5.3,9.8,7c6,2.6,12.4,2.6,12.5,2.6c9.7,0.1,20.3-0.2,29.6-10.7c5.9-6.7,9.2-22.4,9.5-25c0-0.2-1.2-0.4-1.2-0.4h-7.1
				H130.7z"/>
		</g>
	</g>
	<g>
		<path class="st0" d="M70.2,246.7l-0.3,1.5c-0.6,3.3-2.2,6.1-4.8,8.3c-2.6,2.2-5.8,3.3-9.4,3.3c-4,0-7.1-1.3-9.2-4
			c-2.1-2.7-2.9-5.9-2.2-9.7c0.7-3.7,2.4-6.7,5.2-9.1c2.9-2.4,6.2-3.6,9.9-3.6c5,0,8.6,2.4,10.5,6.3l-3,1.6
			c-1.6-3.1-4.2-4.6-7.7-4.6c-2.9,0-5.5,0.9-7.6,2.8c-2.1,1.9-3.5,4.2-4,7.1c-0.5,2.9,0,5.2,1.5,7.1s3.8,2.8,6.8,2.8
			c5.1,0,8.8-2.8,10.2-6.7h-9.3l0.5-3.1H70.2z"/>
		<path class="st0" d="M74.1,257c-1.6-1.9-2.2-4.2-1.7-7.1c0.5-2.8,1.9-5.1,4-6.7s4.6-2.5,7.2-2.5c2.6,0,4.7,0.9,6.3,2.8
			c1.6,1.9,2.1,4.2,1.6,7c-0.5,2.9-1.8,5.1-3.9,6.8s-4.5,2.5-7.1,2.5C77.9,259.8,75.7,258.9,74.1,257z M85.7,255
			c1.5-1.2,2.4-2.8,2.7-4.8c0.3-2,0-3.5-1.1-4.7c-1.1-1.2-2.4-1.7-4.2-1.7c-1.7,0-3.3,0.6-4.8,1.7c-1.5,1.1-2.4,2.7-2.8,4.7
			c-0.3,2,0,3.6,1.1,4.8c1.1,1.1,2.5,1.7,4.2,1.7C82.6,256.8,84.2,256.2,85.7,255z"/>
		<path class="st0" d="M96,257c-1.6-1.9-2.2-4.2-1.7-7.1c0.5-2.8,1.9-5.1,4-6.7s4.6-2.5,7.2-2.5c2.6,0,4.7,0.9,6.3,2.8
			c1.6,1.9,2.1,4.2,1.6,7c-0.5,2.9-1.8,5.1-3.9,6.8s-4.5,2.5-7.1,2.5C99.8,259.8,97.7,258.9,96,257z M107.6,255
			c1.5-1.2,2.4-2.8,2.7-4.8c0.3-2,0-3.5-1.1-4.7c-1.1-1.2-2.4-1.7-4.2-1.7c-1.7,0-3.3,0.6-4.8,1.7c-1.5,1.1-2.4,2.7-2.8,4.7
			c-0.3,2,0,3.6,1.1,4.8c1.1,1.1,2.5,1.7,4.2,1.7C104.6,256.8,106.2,256.2,107.6,255z"/>
		<path class="st0" d="M121.6,243.8c1.5-2.1,3.6-3.1,6.2-3l-0.6,3.3c-1.6,0-3,0.4-4.3,1.3c-1.3,0.9-2.1,2.3-2.4,4.3v0l-1.7,9.7h-3.2
			l3.2-18.2h3.2L121.6,243.8z"/>
		<path class="st0" d="M127.7,259.4l3.2-18.2h3.2l-3.2,18.2H127.7z M131.2,236.8c0.2-1.2,1.2-2.1,2.5-2.1c1.2,0,2,1,1.8,2.1
			c-0.3,1.2-1.2,2.1-2.5,2.1C131.8,238.9,131,238,131.2,236.8z"/>
		<path class="st0" d="M155.3,233.9h3.2l-4.5,25.5h-3.2l0.5-2.6c-1.9,2.1-4.4,3.1-7.3,3.1c-2.6,0-4.7-1-6.2-3c-1.5-2-2-4.3-1.5-7
			c0.5-2.8,1.7-5,3.7-6.7c2-1.7,4.2-2.5,6.7-2.5c3,0,5.5,1.4,6.7,3.9L155.3,233.9z M151.3,245.5c-1.1-1.2-2.5-1.8-4.3-1.8
			c-1.7,0-3.3,0.6-4.8,1.7c-1.4,1.1-2.3,2.7-2.7,4.7c-0.3,1.9,0,3.5,1,4.7c1.1,1.3,2.5,1.9,4.3,1.9s3.5-0.6,4.9-1.8
			c1.4-1.2,2.3-2.7,2.6-4.6C152.8,248.3,152.4,246.7,151.3,245.5z"/>
		<path class="st0" d="M176.6,243.5c1.5,1.9,2,4.1,1.5,6.8c0,0.4-0.2,0.9-0.4,1.4h-15.2c0,3.2,2.2,5.1,5.5,5.1
			c2.4,0,4.4-0.9,5.8-2.7l2.4,1.7c-1.9,2.5-5.1,4-8.5,4c-2.9,0-5.1-0.9-6.6-2.9c-1.5-1.9-2-4.3-1.6-7.1c0.5-2.7,1.7-4.8,3.7-6.6
			c2-1.7,4.4-2.6,7.1-2.6C173,240.7,175.1,241.6,176.6,243.5z M175,248.9c0.1-3.5-1.9-5.2-5-5.2c-3.4,0-6.1,2-7.2,5.2H175z"/>
		<path class="st0" d="M178.6,257.4c0.3-1.3,1.3-2.3,2.8-2.3c1.3,0,2.2,1.1,2,2.4c-0.3,1.3-1.3,2.3-2.8,2.3
			C179.2,259.8,178.4,258.7,178.6,257.4z"/>
		<path class="st0" d="M187.5,259.4l3.2-18.2h3.2l-3.2,18.2H187.5z M191,236.8c0.2-1.2,1.2-2.1,2.5-2.1c1.2,0,2,1,1.8,2.1
			c-0.3,1.2-1.2,2.1-2.5,2.1C191.5,238.9,190.8,238,191,236.8z"/>
		<path class="st0" d="M197.8,257c-1.6-1.9-2.2-4.2-1.7-7.1c0.5-2.8,1.9-5.1,4-6.7c2.1-1.7,4.6-2.5,7.2-2.5c2.6,0,4.7,0.9,6.3,2.8
			c1.6,1.9,2.1,4.2,1.6,7c-0.5,2.9-1.8,5.1-3.9,6.8c-2.1,1.7-4.5,2.5-7.1,2.5C201.6,259.8,199.4,258.9,197.8,257z M209.3,255
			c1.5-1.2,2.4-2.8,2.7-4.8c0.3-2,0-3.5-1.1-4.7c-1.1-1.2-2.4-1.7-4.2-1.7c-1.7,0-3.3,0.6-4.8,1.7c-1.5,1.1-2.4,2.7-2.8,4.7
			c-0.3,2,0,3.6,1.1,4.8c1.1,1.1,2.5,1.7,4.2,1.7C206.3,256.8,207.9,256.2,209.3,255z"/>
		<path class="st0" d="M228.6,249.7l0.5-3.1h13.3l-0.5,3.1H228.6z"/>
		<path class="st0" d="M281.5,246.7l-0.3,1.5c-0.6,3.3-2.2,6.1-4.8,8.3c-2.6,2.2-5.8,3.3-9.4,3.3c-4,0-7.1-1.3-9.2-4
			c-2.1-2.7-2.9-5.9-2.2-9.7c0.7-3.7,2.4-6.7,5.2-9.1c2.9-2.4,6.2-3.6,9.9-3.6c5,0,8.6,2.4,10.5,6.3l-3,1.6
			c-1.6-3.1-4.2-4.6-7.7-4.6c-2.9,0-5.5,0.9-7.6,2.8c-2.1,1.9-3.5,4.2-4,7.1c-0.5,2.9,0,5.2,1.5,7.1c1.5,1.9,3.8,2.8,6.8,2.8
			c5.1,0,8.8-2.8,10.2-6.7h-9.3l0.5-3.1H281.5z"/>
		<path class="st0" d="M300.9,243.5c1.5,1.9,2,4.1,1.5,6.8c0,0.4-0.2,0.9-0.4,1.4h-15.2c0,3.2,2.2,5.1,5.5,5.1
			c2.4,0,4.4-0.9,5.8-2.7l2.4,1.7c-1.9,2.5-5.1,4-8.5,4c-2.9,0-5.1-0.9-6.6-2.9c-1.5-1.9-2-4.3-1.6-7.1c0.5-2.7,1.7-4.8,3.8-6.6
			s4.4-2.6,7.1-2.6C297.3,240.7,299.4,241.6,300.9,243.5z M299.3,248.9c0.1-3.5-1.9-5.2-5-5.2c-3.4,0-6.1,2-7.2,5.2H299.3z"/>
		<path class="st0" d="M311.6,244.2l-1.7,9.9c-0.5,2.8,1.3,2.6,4.4,2.4l-0.5,2.8c-5.4,0.7-7.9-0.9-7.1-5.3l1.7-9.9h-3.6l0.6-3.1h3.6
			l0.7-4.2l3.3-0.9l-0.9,5.1h4.9l-0.5,3.1H311.6z"/>
		<path class="st0" d="M329,257c-1.6-1.9-2.2-4.2-1.7-7.1c0.5-2.8,1.9-5.1,4-6.7s4.6-2.5,7.2-2.5c2.6,0,4.7,0.9,6.3,2.8
			c1.6,1.9,2.1,4.2,1.6,7c-0.5,2.9-1.8,5.1-3.9,6.8c-2.1,1.7-4.5,2.5-7.1,2.5C332.8,259.8,330.7,258.9,329,257z M340.6,255
			c1.5-1.2,2.4-2.8,2.7-4.8c0.3-2,0-3.5-1.1-4.7c-1.1-1.2-2.4-1.7-4.2-1.7c-1.7,0-3.3,0.6-4.8,1.7c-1.5,1.1-2.4,2.7-2.8,4.7
			c-0.3,2,0,3.6,1.1,4.8c1.1,1.1,2.5,1.7,4.2,1.7C337.5,256.8,339.1,256.2,340.6,255z"/>
		<path class="st0" d="M365.7,242.7c1.1,1.3,1.5,3.2,1.1,5.5l-2,11.2h-3.2l1.9-11c0.5-3-0.8-4.7-3.7-4.7c-3.1,0-5.6,1.9-6.3,6v0
			l-1.7,9.7h-3.2l3.2-18.2h3.2l-0.4,2.4c1.6-1.9,3.6-2.9,6.2-2.9C363,240.7,364.6,241.4,365.7,242.7z"/>
		<path class="st0" d="M394.1,241.2h3.5l-10.8,19.3c-2.4,4.4-5.5,6.4-9.2,6.2l0.5-2.9c2.3,0.2,3.8-1,5.4-3.6l0.5-0.9l-4.7-18h3.2
			l3.6,14.4L394.1,241.2z"/>
		<path class="st0" d="M399.4,257c-1.6-1.9-2.2-4.2-1.7-7.1c0.5-2.8,1.9-5.1,4-6.7s4.6-2.5,7.2-2.5c2.6,0,4.7,0.9,6.3,2.8
			c1.6,1.9,2.1,4.2,1.6,7c-0.5,2.9-1.8,5.1-3.9,6.8c-2.1,1.7-4.5,2.5-7.1,2.5C403.1,259.8,401,258.9,399.4,257z M410.9,255
			c1.5-1.2,2.4-2.8,2.7-4.8c0.3-2,0-3.5-1.1-4.7c-1.1-1.2-2.4-1.7-4.2-1.7c-1.7,0-3.3,0.6-4.8,1.7c-1.5,1.1-2.4,2.7-2.8,4.7
			c-0.3,2,0,3.6,1.1,4.8c1.1,1.1,2.5,1.7,4.2,1.7C407.9,256.8,409.5,256.2,410.9,255z"/>
		<path class="st0" d="M434.8,241.2h3.2l-3.2,18.2h-3.2l0.4-2.4c-1.6,1.9-3.6,2.9-6.2,2.9c-2.1,0-3.8-0.7-4.9-2
			c-1.1-1.3-1.5-3.2-1.1-5.5l2-11.2h3.2l-1.9,11c-0.5,3,0.8,4.7,3.7,4.7c3.1,0,5.6-1.9,6.3-6v0L434.8,241.2z"/>
		<path class="st0" d="M445.5,243.8c1.5-2.1,3.6-3.1,6.2-3l-0.6,3.3c-1.6,0-3,0.4-4.3,1.3c-1.3,0.9-2.1,2.3-2.4,4.3v0l-1.7,9.7h-3.2
			l3.2-18.2h3.2L445.5,243.8z"/>
		<path class="st0" d="M479.9,243.6c1.5,1.9,2,4.2,1.6,6.8c-0.5,2.7-1.7,4.9-3.7,6.7c-2,1.8-4.4,2.7-7.1,2.7c-2.9,0-5.2-1.5-6.3-3.9
			l-0.6,3.4h-3.2l4.5-25.5h3.2l-1.8,10.2c1.9-2.2,4.4-3.3,7.4-3.3C476.4,240.7,478.4,241.6,479.9,243.6z M477.3,245.6
			c-1-1.2-2.4-1.8-4.3-1.8c-1.8,0-3.5,0.6-4.9,1.9s-2.4,2.8-2.7,4.7c-0.3,1.9,0,3.4,1.1,4.7c1.1,1.2,2.5,1.9,4.3,1.9
			c1.9,0,3.5-0.6,4.9-1.9c1.4-1.3,2.3-2.9,2.7-4.8C478.7,248.3,478.3,246.8,477.3,245.6z"/>
		<path class="st0" d="M483.7,259.4l3.2-18.2h3.2l-3.2,18.2H483.7z M487.2,236.8c0.2-1.2,1.2-2.1,2.5-2.1c1.2,0,2,1,1.8,2.1
			c-0.3,1.2-1.2,2.1-2.5,2.1C487.8,238.9,487,238,487.2,236.8z"/>
		<path class="st0" d="M509.9,241.2l-10.3,8.8l7.4,9.4h-3.6l-7-9l-1.6,9h-3.2l4.5-25.5h3.2l-2.7,15.2l9.1-7.9H509.9z"/>
		<path class="st0" d="M527.7,243.5c1.5,1.9,2,4.1,1.5,6.8c0,0.4-0.2,0.9-0.4,1.4h-15.2c0,3.2,2.2,5.1,5.5,5.1
			c2.4,0,4.4-0.9,5.8-2.7l2.4,1.7c-1.9,2.5-5.1,4-8.5,4c-2.9,0-5.1-0.9-6.6-2.9c-1.5-1.9-2-4.3-1.6-7.1c0.5-2.7,1.7-4.8,3.8-6.6
			s4.4-2.6,7.1-2.6C524.2,240.7,526.3,241.6,527.7,243.5z M526.2,248.9c0.1-3.5-1.9-5.2-5-5.2c-3.4,0-6.1,2-7.2,5.2H526.2z"/>
	</g>
</g>
</svg>
