<svg width="295" height="135" viewBox="0 0 295 135" fill="none" xmlns="http://www.w3.org/2000/svg">
<path d="M30.7219 127.879L30.5779 128.671H33.9259C33.7099 129.403 33.2779 130.003 32.6179 130.483C31.9699 130.963 31.1899 131.203 30.2779 131.203C29.1979 131.203 28.3819 130.867 27.8419 130.183C27.3019 129.499 27.1099 128.647 27.2899 127.639C27.4579 126.643 27.9259 125.803 28.7059 125.143C29.4859 124.483 30.3979 124.147 31.4419 124.147C32.7019 124.147 33.6139 124.699 34.1779 125.815L34.9219 125.419C34.2859 124.111 33.0859 123.331 31.4659 123.331C30.2419 123.331 29.1619 123.727 28.2139 124.519C27.2659 125.299 26.6899 126.295 26.4739 127.495C26.2459 128.743 26.4859 129.811 27.1939 130.699C27.9019 131.575 28.9099 132.019 30.2419 132.019C31.4419 132.019 32.4619 131.659 33.3019 130.951C34.1539 130.231 34.6699 129.343 34.8499 128.299L34.9219 127.879H30.7219ZM38.3904 132.019C39.4824 132.019 40.4904 131.611 41.2704 130.651C41.6664 130.171 41.9184 129.595 42.0264 128.923C42.1944 127.975 42.0144 127.207 41.4744 126.619C40.9464 126.031 40.2744 125.731 39.4464 125.731C38.5944 125.731 37.8024 126.007 37.0704 126.547C36.3384 127.087 35.8944 127.843 35.7264 128.815C35.5584 129.787 35.7504 130.555 36.2904 131.143C36.8424 131.731 37.5384 132.019 38.3904 132.019ZM38.4624 131.251C37.8264 131.263 37.3104 131.059 36.9144 130.639C36.5184 130.219 36.3864 129.631 36.5184 128.875C36.6504 128.131 36.9864 127.555 37.5264 127.135C38.0664 126.715 38.6664 126.511 39.3024 126.499C39.9384 126.499 40.4424 126.703 40.8384 127.123C41.2344 127.543 41.3784 128.107 41.2464 128.839C41.1144 129.595 40.7784 130.195 40.2384 130.615C39.6984 131.035 39.0984 131.251 38.4624 131.251ZM45.6794 132.019C46.7714 132.019 47.7794 131.611 48.5594 130.651C48.9554 130.171 49.2074 129.595 49.3154 128.923C49.4834 127.975 49.3034 127.207 48.7634 126.619C48.2354 126.031 47.5634 125.731 46.7354 125.731C45.8834 125.731 45.0914 126.007 44.3594 126.547C43.6274 127.087 43.1834 127.843 43.0154 128.815C42.8474 129.787 43.0394 130.555 43.5794 131.143C44.1314 131.731 44.8274 132.019 45.6794 132.019ZM45.7514 131.251C45.1154 131.263 44.5994 131.059 44.2034 130.639C43.8074 130.219 43.6754 129.631 43.8074 128.875C43.9394 128.131 44.2754 127.555 44.8154 127.135C45.3554 126.715 45.9554 126.511 46.5914 126.499C47.2274 126.499 47.7314 126.703 48.1274 127.123C48.5234 127.543 48.6674 128.107 48.5354 128.839C48.4034 129.595 48.0674 130.195 47.5274 130.615C46.9874 131.035 46.3874 131.251 45.7514 131.251ZM59.0165 130.855L58.3205 125.899L58.3325 125.875H57.5285L55.0805 130.855L54.4805 125.875H53.7005L54.4925 131.875H55.3565L57.7565 127.039L58.4525 131.875H59.3165L62.2205 125.875H61.3685L59.0165 130.855ZM63.1509 131.875L64.2069 125.875H63.4149L62.3589 131.875H63.1509ZM63.9789 124.999C64.3269 124.999 64.6029 124.747 64.6629 124.423C64.7229 124.099 64.5069 123.847 64.1829 123.847C63.8469 123.847 63.5589 124.099 63.5109 124.423C63.4629 124.747 63.6549 124.999 63.9789 124.999ZM68.9355 126.643L69.0795 125.875H67.3395L67.6395 124.195L66.8115 124.435L66.5595 125.875H65.2995L65.1555 126.643H66.4275L65.7795 130.279C65.5515 131.611 66.2955 132.139 68.0235 131.875L68.1435 131.179C67.0155 131.227 66.3915 131.323 66.5715 130.279L67.2075 126.643H68.9355ZM73.1713 125.731C72.3073 125.731 71.5993 126.055 71.0473 126.715L71.6113 123.475H70.8193L69.3433 131.875H70.1353L70.6993 128.647C70.9873 127.195 71.8873 126.499 73.0273 126.499C74.0953 126.499 74.5393 127.099 74.3593 128.191L73.7113 131.875H74.5033L75.1513 128.191C75.4033 126.703 74.6233 125.731 73.1713 125.731ZM81.5067 130.975L80.1747 125.875H79.3707L80.9787 131.863L80.7267 132.283C80.1867 133.183 79.5747 133.603 78.9147 133.531L78.7827 134.275C79.8387 134.359 80.8107 133.687 81.5307 132.427L85.2507 125.875H84.3627L81.5067 130.975ZM87.9958 132.019C89.0878 132.019 90.0958 131.611 90.8758 130.651C91.2718 130.171 91.5238 129.595 91.6318 128.923C91.7998 127.975 91.6198 127.207 91.0798 126.619C90.5518 126.031 89.8798 125.731 89.0518 125.731C88.1998 125.731 87.4078 126.007 86.6758 126.547C85.9438 127.087 85.4998 127.843 85.3318 128.815C85.1638 129.787 85.3558 130.555 85.8958 131.143C86.4478 131.731 87.1438 132.019 87.9958 132.019ZM88.0678 131.251C87.4318 131.263 86.9158 131.059 86.5198 130.639C86.1238 130.219 85.9918 129.631 86.1238 128.875C86.2558 128.131 86.5918 127.555 87.1318 127.135C87.6718 126.715 88.2718 126.511 88.9078 126.499C89.5438 126.499 90.0478 126.703 90.4438 127.123C90.8398 127.543 90.9838 128.107 90.8518 128.839C90.7198 129.595 90.3838 130.195 89.8438 130.615C89.3038 131.035 88.7038 131.251 88.0678 131.251ZM97.1449 129.139C96.8569 130.579 95.9449 131.251 94.8289 131.251C93.7609 131.251 93.3169 130.651 93.4969 129.559L94.1449 125.875H93.3529L92.7049 129.559C92.4529 131.047 93.2329 132.019 94.6849 132.019C95.5609 132.019 96.2689 131.695 96.8089 131.035L96.6649 131.875H97.4569L98.5129 125.875H97.7209L97.1449 129.139ZM100.98 125.875H100.188L99.1323 131.875H99.9243L100.512 128.539C100.752 127.159 101.664 126.547 102.756 126.547L102.9 125.779C102.06 125.719 101.376 126.031 100.836 126.715L100.98 125.875ZM110.213 125.731C109.133 125.731 108.257 126.139 107.573 126.967L108.185 123.475H107.393L105.917 131.875H106.709L106.925 130.615C107.309 131.479 108.101 132.019 109.109 132.019C110.033 132.019 110.825 131.719 111.497 131.131C112.181 130.543 112.601 129.799 112.757 128.899C112.913 128.023 112.733 127.279 112.217 126.667C111.713 126.043 111.041 125.731 110.213 125.731ZM111.965 128.815C111.845 129.499 111.521 130.075 110.993 130.543C110.477 131.011 109.865 131.251 109.181 131.251C108.521 131.251 107.993 131.023 107.621 130.567C107.249 130.099 107.129 129.535 107.237 128.875C107.357 128.215 107.681 127.651 108.221 127.195C108.761 126.727 109.361 126.499 110.021 126.499C110.693 126.499 111.209 126.715 111.581 127.159C111.953 127.603 112.085 128.155 111.965 128.815ZM114.338 131.875L115.394 125.875H114.602L113.546 131.875H114.338ZM115.166 124.999C115.514 124.999 115.79 124.747 115.85 124.423C115.91 124.099 115.694 123.847 115.37 123.847C115.034 123.847 114.746 124.099 114.698 124.423C114.65 124.747 114.842 124.999 115.166 124.999ZM120.699 125.875L117.411 128.491L118.287 123.475H117.495L116.019 131.875H116.811L117.339 128.887L119.907 131.875H120.867L118.179 128.755L121.803 125.875H120.699ZM125.705 125.731C124.829 125.731 124.061 126.019 123.377 126.583C122.705 127.147 122.297 127.879 122.141 128.755C121.985 129.679 122.153 130.459 122.645 131.083C123.137 131.707 123.857 132.019 124.781 132.019C125.921 132.019 127.061 131.503 127.637 130.627L127.013 130.219C126.521 130.903 125.813 131.251 124.889 131.251C123.629 131.251 122.837 130.483 122.885 129.271H128.129C128.165 129.163 128.201 129.043 128.225 128.899C128.405 128.035 128.249 127.291 127.769 126.667C127.301 126.043 126.605 125.731 125.705 125.731ZM123.005 128.503C123.377 127.291 124.397 126.499 125.657 126.499C126.821 126.499 127.565 127.195 127.469 128.503H123.005Z" fill="white"/>
<path d="M145.679 35.2862H136.237C135.427 36.4937 134.483 37.4329 133.404 38.372C132.325 39.3112 131.111 39.9821 129.627 40.3846C128.278 40.9212 126.795 41.1896 125.311 41.1896C123.827 41.1896 122.613 40.9212 121.399 40.3846C120.185 39.8479 119.241 39.1771 118.432 38.372C117.622 37.4329 117.083 36.4937 116.813 35.2862C116.543 34.0787 116.408 32.8712 116.678 31.5295C116.948 30.1878 117.487 28.9803 118.297 27.7728C119.106 26.5653 120.05 25.6261 121.129 24.6869C122.208 23.8819 123.422 23.211 124.906 22.6744C126.255 22.1377 127.739 21.8694 129.088 21.8694C130.571 21.8694 131.92 22.1377 132.999 22.6744C134.213 23.211 135.158 23.8819 135.967 24.6869C136.776 25.4919 137.316 26.5653 137.586 27.7728C137.855 28.9803 137.99 30.1878 137.72 31.5295C137.586 32.3345 137.316 33.1395 136.911 33.9445L145.274 20.5277C144.87 19.8568 144.33 19.186 143.79 18.5152C142.307 16.9051 140.553 15.5635 138.26 14.6243C136.102 13.6851 133.539 13.1484 130.841 13.1484C128.143 13.1484 125.446 13.6851 122.883 14.6243C120.32 15.5635 117.892 16.9051 115.869 18.5152C113.71 20.1252 111.957 22.1377 110.473 24.2844C108.989 26.5653 108.045 28.8461 107.506 31.3953C106.966 33.9445 107.101 36.2254 107.64 38.5062C108.18 40.7871 109.259 42.6654 110.743 44.2754C112.227 45.8855 113.98 47.2271 116.273 48.1663C118.432 49.1055 120.994 49.6422 123.692 49.6422C126.525 49.6422 129.088 49.1055 131.785 48.1663C134.348 47.2271 136.776 45.8855 138.8 44.2754C140.958 42.6654 142.711 40.6529 144.195 38.5062C144.735 37.567 145.274 36.6279 145.814 35.6887V35.2862H145.679Z" fill="white"/>
<path d="M187.359 24.4187C186.82 22.1378 185.741 20.2595 184.257 18.6494C182.773 17.0394 181.019 15.6977 178.726 14.7586C176.568 13.8194 174.005 13.2827 171.308 13.2827C168.61 13.2827 165.912 13.8194 163.349 14.7586C160.786 15.6977 158.358 17.0394 156.335 18.6494C154.177 20.2595 152.423 22.272 150.939 24.4187C150.4 25.2237 149.995 26.0287 149.591 26.8337V27.907H158.898C159.707 26.6995 160.651 25.7604 161.73 24.8212C162.81 24.0162 164.024 23.3453 165.507 22.8087C166.856 22.272 168.34 22.0036 169.689 22.0036C171.173 22.0036 172.522 22.272 173.601 22.8087C174.815 23.3453 175.759 24.0162 176.568 24.8212C177.377 25.6262 177.917 26.6995 178.187 27.907C178.457 29.1146 178.591 30.3221 178.322 31.6638C178.052 33.0054 177.512 34.2129 176.703 35.4205C175.894 36.628 174.95 37.5672 173.87 38.5063C172.791 39.4455 171.577 40.1163 170.094 40.5189C168.745 41.0555 167.261 41.3239 165.777 41.3239C164.293 41.3239 163.079 41.0555 161.865 40.5189C160.651 39.9822 159.707 39.3113 158.898 38.5063C158.089 37.5672 157.549 36.628 157.279 35.4205C157.009 34.2129 156.875 33.0054 157.144 31.6638C157.279 31.1271 157.414 30.7246 157.549 30.1879L149.725 42.7997C150.13 43.4705 150.535 44.0072 151.074 44.5439C152.558 46.1539 154.312 47.4956 156.605 48.4348C158.763 49.3739 161.326 49.9106 164.024 49.9106C166.856 49.9106 169.419 49.3739 172.117 48.4348C174.68 47.4956 177.108 46.1539 179.131 44.5439C181.289 42.9339 183.043 40.9214 184.527 38.7747C186.01 36.4938 186.955 34.2129 187.494 31.6638C188.034 28.9804 187.899 26.5654 187.359 24.4187Z" fill="white"/>
<path d="M159.168 4.15921C157.684 1.61002 154.851 0 151.884 0H137.855L143.791 8.45259H152.019L159.438 20.9302H169.419L159.168 4.15921Z" fill="white"/>
<path d="M187.224 76.4759C186.82 74.8659 186.01 73.5242 184.931 72.3167C183.852 71.1091 182.638 70.17 181.019 69.4991C179.401 68.8283 177.647 68.4258 175.759 68.4258H153.233L151.209 78.6226H173.736C174.545 78.6226 175.354 78.8909 175.894 79.4276C176.433 79.9642 176.703 80.7693 176.433 81.5743L176.029 83.8551C175.894 84.7943 175.354 85.4651 174.545 86.136C173.736 86.6726 172.926 87.0752 172.117 87.0752H149.591L144.735 111.225H155.661L158.493 97.1378H163.214L169.824 111.225H182.638L178.726 102.907L175.759 96.4669C177.243 95.9303 178.726 95.2594 179.94 94.4544C181.154 93.6494 182.368 92.7102 183.313 91.6369C184.257 90.5635 185.066 89.356 185.741 88.1485C186.415 86.8068 186.955 85.5993 187.224 84.2576L187.629 81.9768C187.629 79.6959 187.629 78.0859 187.224 76.4759Z" fill="white"/>
<path d="M260.064 94.3203H279.893L281.916 84.1235H261.413C261.548 86.2702 261.413 88.5511 261.008 90.9661C260.738 92.0395 260.334 93.247 260.064 94.3203Z" fill="white"/>
<path d="M256.557 101.431C254.399 104.651 251.836 107.469 248.733 109.75C248.194 110.152 247.654 110.555 247.115 110.957H284.614L286.637 100.895H256.827C256.692 101.163 256.557 101.297 256.557 101.431Z" fill="white"/>
<path d="M195.453 68.4258L186.955 111.091H197.88L206.378 68.4258H195.453Z" fill="white"/>
<path d="M253.589 68.4258C254.264 69.0966 255.073 69.7675 255.613 70.4383C257.771 72.8533 259.255 75.5367 260.334 78.6226H292.977L295 68.4258H253.589Z" fill="white"/>
<path d="M253.724 81.4401C253.05 78.8909 251.836 76.61 250.082 74.7317C248.329 72.8533 246.17 71.2433 243.608 70.17C241.045 69.0966 238.212 68.4258 234.975 68.4258H214.067L205.569 111.091H226.612C229.849 111.091 232.816 110.555 235.919 109.481C238.886 108.408 241.719 106.798 244.147 104.92C246.575 103.041 248.733 100.76 250.487 98.2111C252.24 95.6619 253.319 92.8444 253.994 89.8927C254.399 86.8068 254.399 83.9893 253.724 81.4401ZM242.933 89.7585C242.663 91.2344 241.989 92.7102 241.045 94.0519C240.1 95.3936 239.021 96.6011 237.672 97.5403C236.324 98.4794 234.975 99.2845 233.356 99.9553C231.737 100.492 230.119 100.894 228.5 100.894H218.518L222.97 78.4884H233.086C234.705 78.4884 236.189 78.7567 237.538 79.2934C238.886 79.8301 240.1 80.6351 240.91 81.7084C241.854 82.6476 242.528 83.8551 242.798 85.1968C243.203 86.6726 243.203 88.1485 242.933 89.7585Z" fill="white"/>
<path d="M95.6355 94.052H84.5747C83.6305 95.3937 82.5514 96.6012 81.2025 97.5404C79.8536 98.6137 78.5047 99.4187 76.8861 99.9554C75.2674 100.492 73.6488 100.76 71.8952 100.76C70.2766 100.76 68.6579 100.492 67.309 99.9554C65.9602 99.4187 64.7462 98.6137 63.9368 97.5404C62.9926 96.467 62.4531 95.3937 62.0484 94.052C61.6437 92.7103 61.6438 91.2345 61.9135 89.7586C62.1833 88.1486 62.8577 86.6728 63.802 85.3311C64.7462 83.9894 65.8253 82.7819 67.1742 81.8427C68.3881 80.9035 69.8719 80.0985 71.4906 79.4277C73.1092 78.891 74.7279 78.6227 76.3465 78.6227C78.1001 78.6227 79.5839 78.891 80.9327 79.4277C82.2816 79.9644 83.4956 80.7694 84.3049 81.8427C85.2491 82.7819 85.7887 83.9894 86.1934 85.3311C86.598 86.6728 86.598 88.1486 86.3282 89.7586C86.1934 90.6978 85.7887 91.637 85.384 92.5762L95.096 77.0127C94.5564 76.2076 94.0169 75.4026 93.4773 74.7318C91.7238 72.8534 89.5656 71.2434 87.0027 70.1701C84.4398 69.0967 81.4723 68.5601 78.3699 68.5601C75.1325 68.5601 72.165 69.0967 69.0626 70.1701C66.0951 71.2434 63.2624 72.8534 60.8344 74.7318C58.4064 76.6102 56.2482 78.891 54.4947 81.4402C52.7411 83.9894 51.662 86.8069 50.9876 89.7586C50.448 92.7103 50.448 95.3937 51.1225 98.0771C51.7969 100.626 53.0109 102.907 54.7645 104.785C56.518 106.664 58.6762 108.274 61.2391 109.347C63.802 110.421 66.6346 110.957 69.8719 110.957C73.1092 110.957 76.2117 110.421 79.1792 109.347C82.1467 108.274 84.9794 106.664 87.4074 104.785C89.8353 102.907 91.9935 100.626 93.7471 98.0771C94.4215 97.0037 95.096 95.9304 95.5006 94.857V94.052H95.6355Z" fill="white"/>
<path d="M144.06 81.4402C143.386 78.891 142.172 76.6101 140.418 74.7318C138.665 72.8534 136.507 71.2434 133.944 70.1701C131.381 69.0967 128.413 68.5601 125.311 68.5601C122.074 68.5601 119.106 69.0967 116.004 70.1701C113.036 71.2434 110.204 72.8534 107.776 74.7318C105.348 76.6101 103.189 78.891 101.436 81.4402C100.896 82.3794 100.357 83.3186 99.8171 84.2577V85.4652H110.608C111.552 84.1236 112.631 82.916 113.98 81.9769C115.194 81.0377 116.678 80.2327 118.297 79.5618C119.915 79.0252 121.534 78.7568 123.153 78.7568C124.906 78.7568 126.39 79.0252 127.739 79.5618C129.088 80.0985 130.302 80.9035 131.111 81.9769C132.055 82.916 132.595 84.1236 133 85.4652C133.404 86.8069 133.404 88.2828 133.134 89.8928C132.865 91.3686 132.19 92.8445 131.246 94.1862C130.302 95.5279 129.223 96.7354 127.874 97.6746C126.525 98.7479 125.176 99.5529 123.557 100.09C121.939 100.626 120.32 100.895 118.567 100.895C116.948 100.895 115.329 100.626 113.98 100.09C112.631 99.5529 111.418 98.7479 110.608 97.6746C109.664 96.6012 109.124 95.5279 108.72 94.1862C108.315 92.8445 108.315 91.3686 108.585 89.8928C108.72 89.3561 108.855 88.6853 109.124 88.1486L99.952 102.773C100.357 103.444 100.896 104.249 101.571 104.92C103.324 106.798 105.482 108.408 108.045 109.481C110.608 110.555 113.441 111.091 116.678 111.091C119.915 111.091 123.018 110.555 125.985 109.481C128.953 108.408 131.786 106.798 134.214 104.92C136.642 103.041 138.8 100.76 140.553 98.2112C142.307 95.662 143.386 92.8445 144.06 89.8928C144.87 86.8069 144.735 83.9894 144.06 81.4402Z" fill="white"/>
<path d="M37.4988 86.5385H24.1449L20.368 96.0644H31.6986H34.1266C34.1266 96.0644 32.373 99.4186 30.2148 100.089C23.7402 102.102 19.0191 100.358 18.0749 99.9553C16.5911 99.2845 15.3772 98.4795 14.4329 97.4061C13.4887 96.3328 12.8143 94.9911 12.4096 93.5152C12.005 92.0394 12.005 90.4294 12.2747 88.6852C12.5445 87.0752 13.219 85.4651 14.2981 83.9893C15.2423 82.5134 16.4563 81.1718 17.94 80.0984C19.2889 79.0251 20.9076 78.2201 22.6611 77.5492C24.1449 77.0126 25.7635 76.61 27.2473 76.61H27.5171C27.652 76.61 27.652 76.61 27.7868 76.61H38.7128H49.5038L53.4156 65.7424H29.8102C26.438 65.7424 23.0658 66.2791 19.8285 67.4866C16.5911 68.6941 13.6236 70.3041 10.9259 72.4508C8.2281 74.5975 5.935 77.0126 4.18146 79.6959C2.29302 82.5134 1.07903 85.4651 0.404593 88.6852C-0.269847 91.9052 -0.134959 94.8569 0.539481 97.6744C1.34881 100.626 2.69769 103.041 4.45123 105.188C6.33966 107.2 8.63276 108.945 11.3305 110.152C15.6469 112.03 20.0982 112.03 20.2331 112.03C27.1124 112.03 34.5312 111.896 41.1408 104.517C45.3223 99.8211 47.6154 88.8194 47.8852 86.941C47.8852 86.8068 46.9409 86.6727 46.9409 86.6727H41.9501H37.4988V86.5385Z" fill="white"/>
</svg>
