<svg width="126" height="64" viewBox="0 0 126 64" fill="none" xmlns="http://www.w3.org/2000/svg">
<path d="M23.883 57.836L23.703 58.844H26.763C26.319 60.152 25.083 61.064 23.403 61.064C22.407 61.064 21.651 60.752 21.159 60.128C20.667 59.504 20.499 58.724 20.655 57.776C20.811 56.828 21.255 56.06 21.963 55.448C22.671 54.836 23.511 54.524 24.483 54.524C25.659 54.524 26.511 55.028 27.027 56.048L28.023 55.52C27.399 54.224 26.187 53.444 24.555 53.444C23.319 53.444 22.239 53.84 21.291 54.632C20.355 55.424 19.779 56.42 19.563 57.632C19.335 58.88 19.587 59.948 20.295 60.836C21.003 61.712 22.023 62.156 23.331 62.156C24.543 62.156 25.587 61.796 26.439 61.076C27.291 60.344 27.819 59.432 28.011 58.328L28.095 57.836H23.883ZM32.3917 55.844C31.5157 55.844 30.7357 56.132 30.0637 56.708C29.3917 57.284 28.9837 58.004 28.8277 58.88C28.6717 59.804 28.8397 60.572 29.3437 61.208C29.8477 61.844 30.5677 62.156 31.5157 62.156C32.6557 62.156 33.7117 61.676 34.3237 60.848L33.5437 60.284C33.0757 60.872 32.4397 61.172 31.6357 61.172C30.5317 61.172 29.8117 60.548 29.8117 59.48H34.8277C34.8877 59.3 34.9357 59.144 34.9477 59.012C35.1157 58.136 34.9597 57.392 34.4677 56.78C33.9877 56.156 33.2917 55.844 32.3917 55.844ZM29.9677 58.556C30.3157 57.488 31.2157 56.828 32.3317 56.828C33.3397 56.828 34.0117 57.416 33.9637 58.556H29.9677ZM39.5957 57.008L39.7757 56H38.1677L38.4677 54.32L37.3637 54.632L37.1237 56H35.9477L35.7557 57.008H36.9437L36.3797 60.26C36.1277 61.712 36.9437 62.24 38.7197 62L38.8877 61.064C37.8437 61.112 37.2437 61.172 37.4237 60.26L37.9997 57.008H39.5957ZM45.8826 62.156C46.7346 62.156 47.5146 61.88 48.2106 61.328C48.9066 60.776 49.3386 60.032 49.4946 59.084C49.6506 58.16 49.4706 57.38 48.9546 56.768C48.4386 56.156 47.7426 55.844 46.8906 55.844C46.0146 55.844 45.2226 56.12 44.5146 56.672C43.8066 57.224 43.3626 57.968 43.1946 58.892C43.0266 59.84 43.2066 60.62 43.7466 61.232C44.2866 61.844 44.9946 62.156 45.8826 62.156ZM45.9666 61.136C45.4026 61.148 44.9346 60.956 44.5866 60.584C44.2386 60.2 44.1306 59.672 44.2386 59C44.3706 58.34 44.6706 57.812 45.1506 57.44C45.6306 57.068 46.1586 56.876 46.7226 56.864C47.2986 56.864 47.7546 57.056 48.1026 57.44C48.4506 57.812 48.5706 58.328 48.4626 58.976C48.3546 59.648 48.0546 60.176 47.5626 60.56C47.0826 60.944 46.5546 61.136 45.9666 61.136ZM54.2291 55.844C53.3771 55.844 52.6931 56.156 52.1771 56.792L52.3211 56H51.2771L50.2211 62H51.2651L51.8291 58.808V58.82C52.0571 57.476 52.8971 56.84 53.9171 56.84C54.8771 56.84 55.3091 57.38 55.1291 58.376L54.4931 62H55.5371L56.1851 58.316C56.3171 57.56 56.1971 56.96 55.8251 56.516C55.4651 56.072 54.9371 55.844 54.2291 55.844ZM62.5985 60.74L61.4105 56H60.3545L61.8905 61.94L61.7105 62.228C61.1945 63.092 60.6905 63.488 59.9345 63.428L59.7665 64.4C60.9785 64.484 61.9865 63.812 62.7905 62.372L66.3545 56H65.1905L62.5985 60.74ZM69.0623 62.156C69.9143 62.156 70.6943 61.88 71.3903 61.328C72.0863 60.776 72.5183 60.032 72.6743 59.084C72.8303 58.16 72.6503 57.38 72.1343 56.768C71.6183 56.156 70.9223 55.844 70.0703 55.844C69.1943 55.844 68.4023 56.12 67.6943 56.672C66.9863 57.224 66.5423 57.968 66.3743 58.892C66.2063 59.84 66.3863 60.62 66.9263 61.232C67.4663 61.844 68.1743 62.156 69.0623 62.156ZM69.1463 61.136C68.5823 61.148 68.1143 60.956 67.7663 60.584C67.4183 60.2 67.3103 59.672 67.4183 59C67.5503 58.34 67.8503 57.812 68.3303 57.44C68.8103 57.068 69.3383 56.876 69.9023 56.864C70.4783 56.864 70.9343 57.056 71.2823 57.44C71.6303 57.812 71.7503 58.328 71.6423 58.976C71.5343 59.648 71.2343 60.176 70.7423 60.56C70.2623 60.944 69.7343 61.136 69.1463 61.136ZM78.0328 59.192V59.18C77.8048 60.524 76.9648 61.16 75.9448 61.16C74.9848 61.16 74.5528 60.62 74.7328 59.624L75.3688 56H74.3248L73.6768 59.684C73.5448 60.44 73.6648 61.04 74.0248 61.484C74.3968 61.928 74.9248 62.156 75.6328 62.156C76.4848 62.156 77.1688 61.844 77.6848 61.208L77.5408 62H78.5848L79.6408 56H78.5968L78.0328 59.192ZM82.2742 56H81.2302L80.1742 62H81.2182L81.7822 58.808V58.82C81.8902 58.16 82.1542 57.692 82.5742 57.404C82.9942 57.104 83.4622 56.972 83.9782 56.984L84.1702 55.892C83.3062 55.868 82.6222 56.192 82.1182 56.876L82.2742 56ZM91.4794 55.844C90.4954 55.844 89.6914 56.216 89.0554 56.948L89.6434 53.6H88.5994L87.1234 62H88.1674L88.3594 60.884C88.7434 61.664 89.4754 62.156 90.4474 62.156C91.3474 62.156 92.1274 61.856 92.7874 61.268C93.4474 60.668 93.8434 59.924 93.9994 59.048C94.1554 58.172 93.9754 57.416 93.4834 56.792C92.9914 56.156 92.3194 55.844 91.4794 55.844ZM92.9554 58.952C92.8474 59.576 92.5474 60.104 92.0794 60.524C91.6114 60.944 91.0714 61.148 90.4594 61.148C89.8594 61.148 89.3914 60.944 89.0434 60.536C88.7074 60.116 88.5874 59.612 88.6954 59C88.8034 58.388 89.1034 57.872 89.5834 57.464C90.0634 57.056 90.6034 56.852 91.2034 56.852C91.8154 56.852 92.2834 57.056 92.6074 57.452C92.9434 57.848 93.0634 58.34 92.9554 58.952ZM95.7612 62L96.8172 56H95.7732L94.7172 62H95.7612ZM96.4452 55.256C96.8652 55.256 97.1892 54.956 97.2732 54.56C97.3332 54.176 97.0692 53.852 96.6852 53.852C96.2652 53.852 95.9292 54.164 95.8692 54.56C95.8092 54.944 96.0612 55.256 96.4452 55.256ZM102.01 56L98.9979 58.604L99.8739 53.6H98.8299L97.3539 62H98.3979L98.9139 59.048L101.206 62H102.406L99.9699 58.904L103.354 56H102.01ZM107.157 55.844C106.281 55.844 105.501 56.132 104.829 56.708C104.157 57.284 103.749 58.004 103.593 58.88C103.437 59.804 103.605 60.572 104.109 61.208C104.613 61.844 105.333 62.156 106.281 62.156C107.421 62.156 108.477 61.676 109.089 60.848L108.309 60.284C107.841 60.872 107.205 61.172 106.401 61.172C105.297 61.172 104.577 60.548 104.577 59.48H109.593C109.653 59.3 109.701 59.144 109.713 59.012C109.881 58.136 109.725 57.392 109.233 56.78C108.753 56.156 108.057 55.844 107.157 55.844ZM104.733 58.556C105.081 57.488 105.981 56.828 107.097 56.828C108.105 56.828 108.777 57.416 108.729 58.556H104.733Z" fill="black"/>
<path d="M62.2222 15.0555H58.1893C57.8436 15.5708 57.4403 15.9715 56.9794 16.3722C56.5185 16.7729 56 17.0591 55.3663 17.2309C54.7901 17.4598 54.1564 17.5743 53.5226 17.5743C52.8889 17.5743 52.3704 17.4598 51.8519 17.2309C51.3333 17.0019 50.9301 16.7157 50.5844 16.3722C50.2387 15.9715 50.0082 15.5708 49.893 15.0555C49.7778 14.5403 49.7202 14.0251 49.8354 13.4527C49.9506 12.8802 50.1811 12.365 50.5268 11.8498C50.8724 11.3346 51.2757 10.9339 51.7366 10.5332C52.1975 10.1897 52.7161 9.90349 53.3498 9.67451C53.9259 9.44553 54.5597 9.33104 55.1358 9.33104C55.7696 9.33104 56.3457 9.44553 56.8066 9.67451C57.3251 9.90349 57.7284 10.1897 58.0741 10.5332C58.4198 10.8767 58.6502 11.3346 58.7654 11.8498C58.8807 12.365 58.9383 12.8802 58.8231 13.4527C58.7654 13.7962 58.6502 14.1396 58.4774 14.4831L62.0494 8.75859C61.8766 8.47236 61.6461 8.18614 61.4156 7.89991C60.7819 7.21297 60.0329 6.64052 59.0535 6.2398C58.1317 5.83909 57.037 5.61011 55.8848 5.61011C54.7325 5.61011 53.5803 5.83909 52.4856 6.2398C51.391 6.64052 50.3539 7.21297 49.4897 7.89991C48.5679 8.58685 47.8189 9.44553 47.1852 10.3614C46.5514 11.3346 46.1482 12.3078 45.9177 13.3954C45.6872 14.4831 45.7449 15.4563 45.9753 16.4294C46.2058 17.4026 46.6667 18.204 47.3004 18.891C47.9342 19.5779 48.6831 20.1504 49.6626 20.5511C50.5844 20.9518 51.679 21.1808 52.8313 21.1808C54.0412 21.1808 55.1358 20.9518 56.2881 20.5511C57.3827 20.1504 58.4198 19.5779 59.284 18.891C60.2058 18.204 60.9547 17.3453 61.5885 16.4294C61.8189 16.0287 62.0494 15.628 62.2798 15.2273V15.0555H62.2222Z" fill="black"/>
<path d="M80.0247 10.4186C79.7942 9.44541 79.3333 8.64398 78.6996 7.95704C78.0658 7.2701 77.3169 6.69765 76.3375 6.29693C75.4156 5.89622 74.321 5.66724 73.1687 5.66724C72.0165 5.66724 70.8642 5.89622 69.7695 6.29693C68.6749 6.69765 67.6379 7.2701 66.7737 7.95704C65.8519 8.64398 65.1029 9.50266 64.4691 10.4186C64.2387 10.762 64.0658 11.1055 63.893 11.449V11.9069H67.8683C68.214 11.3917 68.6173 10.991 69.0782 10.5903C69.5391 10.2468 70.0576 9.96062 70.6914 9.73164C71.2675 9.50266 71.9012 9.38817 72.4774 9.38817C73.1111 9.38817 73.6872 9.50266 74.1481 9.73164C74.6667 9.96062 75.07 10.2468 75.4156 10.5903C75.7613 10.9338 75.9918 11.3917 76.107 11.9069C76.2222 12.4222 76.2798 12.9374 76.1646 13.5098C76.0494 14.0823 75.8189 14.5975 75.4733 15.1127C75.1276 15.6279 74.7243 16.0286 74.2634 16.4293C73.8025 16.83 73.284 17.1163 72.6502 17.288C72.0741 17.517 71.4403 17.6315 70.8066 17.6315C70.1728 17.6315 69.6543 17.517 69.1358 17.288C68.6173 17.059 68.214 16.7728 67.8683 16.4293C67.5226 16.0286 67.2922 15.6279 67.177 15.1127C67.0617 14.5975 67.0041 14.0823 67.1193 13.5098C67.177 13.2808 67.2346 13.1091 67.2922 12.8801L63.9506 18.2612C64.1235 18.5474 64.2963 18.7764 64.5267 19.0053C65.1605 19.6923 65.9095 20.2647 66.8889 20.6654C67.8107 21.0662 68.9053 21.2951 70.0576 21.2951C71.2675 21.2951 72.3621 21.0662 73.5144 20.6654C74.6091 20.2647 75.6461 19.6923 76.5103 19.0053C77.4321 18.3184 78.1811 17.4597 78.8148 16.5438C79.4486 15.5706 79.8519 14.5975 80.0823 13.5098C80.3128 12.3649 80.2551 11.3345 80.0247 10.4186Z" fill="black"/>
<path d="M67.9836 1.7746C67.3498 0.686941 66.1399 0 64.8724 0H58.8807L61.4157 3.60644H64.9301L68.0988 8.93023H72.3622L67.9836 1.7746Z" fill="black"/>
<path d="M79.9671 32.6298C79.7943 31.9428 79.4486 31.3704 78.9877 30.8552C78.5268 30.34 78.0083 29.9393 77.3169 29.653C76.6256 29.3668 75.8766 29.1951 75.07 29.1951H65.4486L64.5844 33.5457H74.2058C74.5515 33.5457 74.8972 33.6602 75.1276 33.8892C75.3581 34.1181 75.4733 34.4616 75.3581 34.8051L75.1852 35.7783C75.1276 36.179 74.8972 36.4652 74.5515 36.7514C74.2058 36.9804 73.8601 37.1521 73.5144 37.1521H63.893L61.819 47.4563H66.4856L67.6955 41.4455H69.712L72.535 47.4563H78.0083L76.3375 43.9071L75.07 41.1593C75.7037 40.9303 76.3375 40.6441 76.856 40.3006C77.3745 39.9571 77.893 39.5564 78.2963 39.0985C78.6996 38.6405 79.0453 38.1253 79.3334 37.6101C79.6214 37.0376 79.8519 36.5224 79.9671 35.95L80.14 34.9768C80.14 34.0037 80.14 33.3167 79.9671 32.6298Z" fill="black"/>
<path d="M111.078 40.2432H119.547L120.412 35.8926H111.654C111.712 36.8085 111.654 37.7817 111.481 38.8121C111.366 39.27 111.193 39.7852 111.078 40.2432Z" fill="black"/>
<path d="M109.58 43.2773C108.658 44.6512 107.564 45.8534 106.239 46.8265C106.008 46.9983 105.778 47.17 105.547 47.3417H121.564L122.428 43.0483H109.696C109.638 43.1628 109.58 43.2201 109.58 43.2773Z" fill="black"/>
<path d="M83.4815 29.1951L79.8519 47.399H84.5185L88.1481 29.1951H83.4815Z" fill="black"/>
<path d="M108.313 29.1951C108.601 29.4813 108.946 29.7675 109.177 30.0537C110.099 31.0842 110.732 32.2291 111.193 33.5457H125.136L126 29.1951H108.313Z" fill="black"/>
<path d="M108.37 34.7478C108.082 33.6602 107.564 32.687 106.815 31.8856C106.066 31.0842 105.144 30.3972 104.049 29.9393C102.955 29.4813 101.745 29.1951 100.362 29.1951H91.4321L87.8025 47.399H96.7901C98.1729 47.399 99.4403 47.17 100.765 46.7121C102.033 46.2541 103.243 45.5672 104.28 44.7657C105.317 43.9643 106.239 42.9911 106.988 41.9035C107.737 40.8158 108.198 39.6137 108.486 38.3543C108.658 37.0376 108.658 35.8355 108.37 34.7478ZM103.761 38.297C103.646 38.9267 103.358 39.5564 102.955 40.1289C102.551 40.7013 102.091 41.2165 101.514 41.6172C100.938 42.018 100.362 42.3614 99.6708 42.6477C98.9794 42.8766 98.2881 43.0484 97.5967 43.0484H93.3334L95.2346 33.4884H99.5556C100.247 33.4884 100.881 33.6029 101.457 33.8319C102.033 34.0609 102.551 34.4044 102.897 34.8623C103.3 35.263 103.588 35.7783 103.704 36.3507C103.877 36.9804 103.877 37.6101 103.761 38.297Z" fill="black"/>
<path d="M40.8478 40.1288H36.1235C35.7202 40.7012 35.2593 41.2164 34.6832 41.6171C34.107 42.0751 33.5309 42.4186 32.8395 42.6475C32.1482 42.8765 31.4568 42.991 30.7079 42.991C30.0165 42.991 29.3251 42.8765 28.749 42.6475C28.1729 42.4186 27.6544 42.0751 27.3087 41.6171C26.9054 41.1592 26.6749 40.7012 26.5021 40.1288C26.3293 39.5563 26.3293 38.9266 26.4445 38.2969C26.5597 37.61 26.8478 36.9803 27.2511 36.4078C27.6544 35.8354 28.1153 35.3202 28.6914 34.9195C29.2099 34.5187 29.8437 34.1753 30.535 33.889C31.2264 33.6601 31.9177 33.5456 32.6091 33.5456C33.3581 33.5456 33.9918 33.6601 34.5679 33.889C35.1441 34.118 35.6626 34.4615 36.0083 34.9195C36.4116 35.3202 36.642 35.8354 36.8148 36.4078C36.9877 36.9803 36.9877 37.61 36.8725 38.2969C36.8148 38.6976 36.642 39.0984 36.4692 39.4991L40.6173 32.8586C40.3869 32.5152 40.1564 32.1717 39.926 31.8855C39.177 31.084 38.2552 30.3971 37.1605 29.9391C36.0659 29.4812 34.7984 29.2522 33.4733 29.2522C32.0906 29.2522 30.8231 29.4812 29.498 29.9391C28.2305 30.3971 27.0206 31.084 25.9836 31.8855C24.9465 32.6869 24.0247 33.6601 23.2758 34.7477C22.5268 35.8354 22.0659 37.0375 21.7778 38.2969C21.5474 39.5563 21.5474 40.7012 21.8354 41.8461C22.1235 42.9338 22.642 43.9069 23.391 44.7084C24.14 45.5098 25.0618 46.1967 26.1564 46.6547C27.2511 47.1127 28.4609 47.3416 29.8437 47.3416C31.2264 47.3416 32.5515 47.1127 33.819 46.6547C35.0865 46.1967 36.2963 45.5098 37.3334 44.7084C38.3704 43.9069 39.2922 42.9338 40.0412 41.8461C40.3293 41.3882 40.6173 40.9302 40.7902 40.4722V40.1288H40.8478Z" fill="black"/>
<path d="M61.5309 34.7477C61.2428 33.6601 60.7243 32.6869 59.9754 31.8855C59.2264 31.084 58.3046 30.3971 57.2099 29.9391C56.1153 29.4812 54.8478 29.2522 53.5227 29.2522C52.14 29.2522 50.8725 29.4812 49.5474 29.9391C48.2799 30.3971 47.07 31.084 46.033 31.8855C44.9959 32.6869 44.0741 33.6601 43.3251 34.7477C43.0947 35.1484 42.8642 35.5492 42.6338 35.9499V36.4651H47.2428C47.6461 35.8926 48.107 35.3774 48.6832 34.9767C49.2017 34.576 49.8354 34.2325 50.5268 33.9463C51.2182 33.7173 51.9095 33.6028 52.6009 33.6028C53.3498 33.6028 53.9836 33.7173 54.5597 33.9463C55.1358 34.1753 55.6544 34.5187 56 34.9767C56.4033 35.3774 56.6338 35.8926 56.8066 36.4651C56.9795 37.0375 56.9795 37.6672 56.8642 38.3542C56.749 38.9839 56.461 39.6136 56.0577 40.186C55.6544 40.7585 55.1935 41.2737 54.6173 41.6744C54.0412 42.1323 53.4651 42.4758 52.7737 42.7048C52.0823 42.9338 51.391 43.0483 50.642 43.0483C49.9507 43.0483 49.2593 42.9338 48.6832 42.7048C48.107 42.4758 47.5885 42.1323 47.2428 41.6744C46.8396 41.2164 46.6091 40.7585 46.4363 40.186C46.2634 39.6136 46.2634 38.9839 46.3786 38.3542C46.4363 38.1252 46.4939 37.839 46.6091 37.61L42.6914 43.8497C42.8642 44.1359 43.0947 44.4794 43.3828 44.7656C44.1317 45.567 45.0535 46.254 46.1482 46.7119C47.2428 47.1699 48.4527 47.3989 49.8354 47.3989C51.2182 47.3989 52.5433 47.1699 53.8107 46.7119C55.0782 46.254 56.2881 45.567 57.3252 44.7656C58.3622 43.9642 59.284 42.991 60.033 41.9034C60.7819 40.8157 61.2428 39.6136 61.5309 38.3542C61.8766 37.0375 61.819 35.8354 61.5309 34.7477Z" fill="black"/>
<path d="M16.0165 36.923H10.3128L8.6996 40.9874H13.5391H14.5761C14.5761 40.9874 13.8272 42.4186 12.9054 42.7048C10.1399 43.5635 8.12347 42.8193 7.72017 42.6475C7.08643 42.3613 6.56791 42.0178 6.16462 41.5599C5.76133 41.1019 5.47326 40.5295 5.30042 39.8998C5.12758 39.2701 5.12758 38.5831 5.24281 37.839C5.35803 37.152 5.6461 36.4651 6.107 35.8354C6.5103 35.2057 7.02882 34.6332 7.66256 34.1753C8.23869 33.7173 8.93005 33.3738 9.67902 33.0876C10.3128 32.8586 11.0041 32.6869 11.6379 32.6869H11.7531C11.8107 32.6869 11.8107 32.6869 11.8683 32.6869H16.535H21.144L22.8148 28.05H12.7325C11.2922 28.05 9.85186 28.279 8.46914 28.7942C7.08643 29.3094 5.81894 29.9964 4.66668 30.9123C3.51441 31.8282 2.53499 32.8586 1.78602 34.0035C0.979433 35.2057 0.460914 36.4651 0.172849 37.839C-0.115217 39.2128 -0.0576041 40.4722 0.230462 41.6744C0.576141 42.9338 1.15227 43.9642 1.90124 44.8801C2.70783 45.7388 3.68725 46.483 4.83951 46.9982C6.68314 47.7996 8.58437 47.7996 8.64198 47.7996C11.5803 47.7996 14.749 47.7424 17.572 44.5939C19.358 42.5903 20.3375 37.8962 20.4527 37.0948C20.4527 37.0375 20.0494 36.9803 20.0494 36.9803H17.9177H16.0165V36.923Z" fill="black"/>
</svg>
