<svg width="338" height="105" viewBox="0 0 338 105" fill="none" xmlns="http://www.w3.org/2000/svg">
<path d="M59.8461 26.96C60.7821 21.632 59.7021 17.24 56.5341 13.784C53.3661 10.256 49.1901 8.528 43.9341 8.528H23.7741L14.8461 58.928H29.2461L32.0541 43.088H36.6621L41.8461 58.928H56.2461L49.7661 40.496C55.4541 37.616 58.7661 33.08 59.8461 26.96ZM41.5581 21.776C44.4381 21.776 45.9501 23.576 45.4461 26.528C44.9421 29.48 42.8541 31.208 40.0461 31.136H34.1421L35.7981 21.776H41.5581ZM59.8461 59H74.2461L83.1021 8.6H68.7021L59.8461 59ZM90.288 8.6L81.432 59H102.312C109.872 59 116.208 56.768 121.392 52.232C126.576 47.696 129.816 41.792 131.112 34.52C132.336 27.392 130.968 21.344 127.008 16.232C123.048 11.12 117.792 8.6 111.168 8.6H90.288ZM116.856 33.8C115.632 40.424 110.592 45.032 104.76 45.032H99L102.96 22.568H108.72C114.552 22.568 118.008 27.176 116.856 33.8ZM173.814 8.6H141.054L132.198 59H165.318L167.622 45.752H148.902L149.91 40.136H166.47L168.774 27.176H152.214L153.15 21.704H171.51L173.814 8.6Z" fill="#243F60"/>
<path d="M0.432 103H14.832L23.688 52.6H9.288L0.432 103ZM36.4179 103L40.6659 78.808L52.2579 103H63.7779L72.6339 52.6H58.2339L53.9859 76.792L42.3939 52.6H30.8739L22.0179 103H36.4179ZM115.178 73.264L113.018 85.504H123.17C120.938 89.032 117.266 90.76 112.154 90.76C108.698 90.76 106.034 89.464 104.234 86.944C102.434 84.352 101.786 81.328 102.434 77.8C103.082 74.2 104.666 71.248 107.33 69.016C109.994 66.712 113.018 65.56 116.474 65.56C120.722 65.56 123.89 67.144 125.834 70.24L139.01 63.112C134.906 55.912 127.706 51.448 117.914 51.448C110.426 51.448 103.874 53.824 98.3295 58.648C92.7855 63.4 89.3295 69.52 88.1055 77.08C86.8095 84.784 88.3215 91.264 92.6415 96.448C97.0335 101.56 103.154 104.152 111.002 104.152C118.706 104.152 125.114 101.848 130.226 97.312C135.338 92.704 138.578 86.656 139.802 79.24L140.81 73.264H115.178ZM186.057 70.96C186.993 65.632 185.913 61.24 182.745 57.784C179.577 54.256 175.401 52.528 170.145 52.528H149.985L141.057 102.928H155.457L158.265 87.088H162.873L168.057 102.928H182.457L175.977 84.496C181.665 81.616 184.977 77.08 186.057 70.96ZM167.769 65.776C170.649 65.776 172.161 67.576 171.657 70.528C171.153 73.48 169.065 75.208 166.257 75.136H160.353L162.009 65.776H167.769ZM212.193 104.152C220.257 104.152 226.953 101.632 232.281 96.52C237.681 91.408 240.921 85.36 242.001 78.376C243.081 71.68 241.425 65.056 237.681 59.944C233.937 54.832 227.169 51.448 218.889 51.448C210.897 51.448 204.201 53.968 198.729 59.008C193.329 63.976 190.017 69.952 188.865 76.936C187.425 85.936 190.377 94.648 198.153 100.12C202.041 102.784 206.721 104.152 212.193 104.152ZM205.065 86.584C203.121 84.208 202.473 81.328 203.121 77.8C203.769 74.272 205.425 71.392 208.161 69.088C210.897 66.712 214.065 65.56 217.593 65.56C221.121 65.56 223.857 66.712 225.801 69.088C227.745 71.392 228.393 74.272 227.745 77.8C227.097 81.328 225.441 84.208 222.705 86.584C219.969 88.888 216.801 90.04 213.273 90.04C209.745 90.04 207.009 88.888 205.065 86.584ZM263.528 104.152C269.432 104.152 274.472 102.568 278.576 99.4C282.752 96.232 285.344 91.84 286.352 86.152L292.256 52.6H277.856L272.24 84.568C271.592 88.312 269.216 90.184 265.112 90.184C261.08 90.184 259.352 88.312 260 84.568L265.616 52.6H251.216L245.312 86.152C244.376 91.336 245.672 95.656 249.056 99.04C252.44 102.424 257.264 104.152 263.528 104.152ZM298.765 52.6L289.909 103H304.309L306.829 88.744H312.589C318.565 88.744 323.389 87.16 327.133 84.064C330.949 80.896 333.181 76.648 333.973 71.392C334.765 65.704 333.613 61.168 330.517 57.784C327.421 54.328 323.461 52.6 318.565 52.6H298.765ZM319.717 70.672C319.357 73.192 317.269 74.776 315.037 74.776H309.277L310.717 66.568H316.117C318.349 66.568 320.221 68.008 319.717 70.672Z" fill="#EBE104"/>
</svg>
