<svg width="339" height="61" viewBox="0 0 339 61" fill="none" xmlns="http://www.w3.org/2000/svg">
<path d="M329.542 61C315.804 61 80.3385 61 66.483 61C66.6798 59.649 66.7979 58.3799 67.1128 57.1517C67.5064 55.5141 66.9947 55.0228 65.4596 54.9819C64.0032 54.9819 62.2712 55.596 61.3265 53.9174C60.1457 51.8295 61.3659 48.5953 63.8457 47.7356C64.2787 47.5718 64.9479 47.3671 65.0266 47.0805C65.9319 43.8872 67.1128 45.402 68.5298 46.6302C69.5139 40.3255 70.4586 34.3483 71.4427 28.0027C70.3405 28.8215 69.5533 29.4765 68.6873 30.0087C66.8766 31.155 65.0659 30.5819 64.5936 28.8215C64.3968 28.1664 64.4362 27.3886 64.1606 26.8154C63.8851 26.2013 63.334 25.751 62.6255 24.8913C64.5149 23.2946 66.3255 21.657 68.2543 20.2651C68.766 19.8966 69.7501 20.1013 70.4586 20.1832C71.0884 20.2651 71.6788 20.5926 72.2693 20.8383C72.5448 20.1423 72.9384 19.4463 73.0565 18.7503C74.0012 13.1007 74.9459 7.45101 75.7725 1.7604C75.9693 0.368456 76.5598 0 77.78 0C90.3759 0.0409396 324.936 0.0409396 337.532 0C338.792 0 339.146 0.491275 338.949 1.80134C335.879 21.0839 332.887 40.4074 329.856 59.6899C329.856 60.0993 329.699 60.5087 329.542 61ZM69.5139 25.1779C68.6086 25.8329 67.8607 26.3651 67.1128 26.9383C67.4671 27.3477 68.0181 28.1255 68.1756 28.0436C69.0809 27.5523 69.9075 26.8154 70.7341 26.1604C70.4192 25.8738 70.1043 25.6282 69.5139 25.1779ZM20.0354 21.9846C18.6971 23.049 17.2407 24.0315 16.1386 25.3007C14.2885 27.4295 16.1779 28.3711 17.1226 29.5584C18.1854 30.9094 21.6887 30.9503 23.3419 29.845C25.3493 28.494 24.6408 26.6107 25.1919 24.9732C26.1366 22.2302 25.2706 20.5517 22.9482 19.7738C21.9248 20.5517 20.9408 21.2477 20.0354 21.9846ZM29.876 33.4067C28.8526 33.9389 27.7898 34.4302 26.8845 35.1671C26.294 35.6175 26.0185 36.4772 25.5855 37.1322C26.176 37.3778 26.727 37.7054 27.3175 37.8691C27.7898 38.0329 28.3015 38.0329 29.0494 38.1557C28.0654 39.302 27.3175 40.1208 26.2547 41.3899C28.026 41.8812 29.4037 42.7 30.7814 42.4544C32.3165 42.2087 34.4027 41.3081 35.2293 40.0799C37.7878 36.1906 34.8357 34.2255 32.9856 31.851C31.8441 32.4242 30.8601 32.8745 29.876 33.4067ZM59.8308 16.8671C60.5786 17.2356 61.6414 17.3993 61.7595 16.0074C61.9563 13.6738 63.4127 11.3403 61.917 9.00671C60.7361 7.16443 59.8701 6.67315 57.8626 8.4745C57.2722 8.96577 56.7211 9.53893 56.0913 9.90738C54.6349 10.8081 53.1392 11.6678 52.3913 12.1181C53.6902 14.3698 54.8317 16.3349 56.1701 18.6275C57.5871 15.7208 57.5871 15.7208 59.8308 16.8671ZM21.1376 50.3557C21.4525 49.0047 21.8855 47.6537 19.9567 47.5718C19.7205 47.5718 19.4056 46.9987 19.445 46.7121C19.6812 45.1564 18.6184 45.2383 17.595 45.2792C16.5715 45.3201 12.0842 48.9228 11.7693 49.9463C11.73 50.151 11.6513 50.3966 11.6906 50.5604C12.0842 51.6658 12.3598 52.8121 12.9109 53.7946C13.5406 54.9819 16.8864 55.9235 18.3035 54.8591C19.6418 53.8765 20.5078 52.0752 21.5706 50.6013C21.4131 50.5195 21.2557 50.4376 21.1376 50.3557ZM55.5796 41.9221C56.6031 41.1443 57.5084 40.2027 58.4924 39.3839C60.6574 37.5825 59.8701 35.0852 57.9807 34.3074C57.5871 34.1436 57.036 34.1436 56.8392 33.8161C55.8945 32.506 55.0286 33.0792 53.887 34.0617C53.0604 34.7577 52.037 35.4128 51.053 35.6584C49.9508 35.904 49.4391 36.3544 49.3604 37.3779C49.321 37.9919 49.2817 38.7698 49.5966 39.1792C50.6593 40.6121 51.3679 42.4544 53.6115 43.0275C54.2019 42.7 54.9498 42.4134 55.5796 41.9221ZM49.5966 26.5289C49.8721 25.4235 49.9115 24.6866 48.5731 24.3181C47.7465 24.0725 47.1167 22.9671 46.8412 22.0255C46.4476 20.6745 45.8571 20.4698 44.5188 21.3705C43.4167 22.1483 42.1964 22.7624 40.9762 23.2946C39.5985 23.9497 38.9294 24.9732 39.1262 26.2832C39.3623 27.798 43.4167 30.5819 44.9912 30.5409C46.3295 30.5 49.2423 27.9208 49.5966 26.5289ZM7.12458 10.9309C6.3767 11.4631 5.58945 13.3054 5.86499 13.8785C6.6916 15.5161 7.99056 16.8671 9.25015 18.1772C9.44696 18.3819 10.6278 18.0544 10.9427 17.6859C12.2811 15.9664 13.3045 13.9604 14.7609 12.4047C15.9024 11.1356 15.9417 10.4805 15.0364 9.53893C14.446 8.92483 14.0524 8.10604 13.58 7.36913C11.1789 8.63826 9.01398 9.57987 7.12458 10.9309ZM8.62035 32.3832C6.65224 33.9389 5.23519 36.3544 2.59791 36.9275C2.32238 36.9685 1.81067 37.9919 1.92875 38.2785C2.20429 39.0154 2.75536 39.5886 3.14899 40.2027C3.85751 39.8342 4.36922 39.5476 4.88093 39.2611C5.03838 39.343 5.19583 39.4658 5.35328 39.5476C4.84157 40.5302 4.36922 41.5537 3.73942 42.7819C5.03838 42.7819 6.25861 42.9866 7.43948 42.7409C10.0374 42.2087 11.73 40.1617 11.297 37.8282C10.9034 35.7812 10.0768 33.898 9.44696 31.851C9.17143 32.0148 8.89589 32.1785 8.62035 32.3832ZM42.5507 52.6074C43.1411 52.6074 43.7316 52.6893 44.322 52.5664C44.7156 52.4846 45.4241 52.157 45.4635 51.9114C45.6997 50.6013 46.3295 48.8409 45.7784 48.0221C44.9124 46.753 43.1018 45.1154 41.9209 45.443C39.6772 46.098 37.5517 47.9403 35.5442 49.5369C35.0718 49.9054 35.2687 51.2973 35.1899 52.2389C35.8985 51.9933 36.6463 51.7886 37.3155 51.4201C38.0634 51.0517 38.7325 50.5604 40.1102 49.7007C39.0081 53.1805 41.0156 52.5664 42.5507 52.6074ZM39.0474 11.0537C38.6145 10.0711 37.8666 8.88389 36.9219 8.72013C35.4655 8.4745 35.7016 10.1121 35.5442 11.0128C35.0325 14.206 34.8357 14.4517 31.726 14.6564C30.309 14.7383 29.8367 15.1477 30.5452 16.4987C31.8048 18.9141 34.0484 19.2007 36.4102 17.1128C37.4729 16.1711 38.4964 15.1886 39.323 14.4107C39.2443 13.0597 39.4411 11.9134 39.0474 11.0537ZM28.5377 2.86577C26.9238 2.29262 25.31 1.63758 23.6174 1.26913C21.5312 0.777852 21.3344 2.78389 21.3344 3.84832C21.3738 4.66711 22.594 5.93624 23.2238 5.77248C25.0345 5.32215 26.7664 4.25772 28.5377 3.43893C28.5771 3.23423 28.5377 3.02953 28.5377 2.86577ZM7.63629 60.9181C6.53415 59.4443 6.21925 57.1517 3.77878 57.5201C1.96812 57.7658 1.06278 59.2396 0 60.9181C2.75536 60.9181 5.19583 60.9181 7.63629 60.9181ZM52.1945 1.59664C51.8008 1.47383 51.2891 1.18725 50.7381 1.18725C49.5572 1.14631 48.3763 1.14631 47.1954 1.26913C46.5657 1.35101 45.4635 1.63758 45.3061 2.00604C44.9912 2.86577 45.0305 3.84832 45.1486 4.70805C45.2273 5.24027 45.6997 5.64966 45.9752 6.14094C48.2582 4.50336 50.1083 3.11141 52.1945 1.59664ZM31.1356 60.8772C30.2696 59.8946 28.8526 59.5262 29.0494 57.7658C29.0494 57.643 28.3803 57.5201 28.026 57.4792C25.7036 57.1517 24.7589 59.4034 23.2631 60.8362C25.8611 60.8772 28.4983 60.8772 31.1356 60.8772ZM51.0923 57.3973C48.6912 57.7248 49.4391 59.9765 47.6678 60.9181C50.2657 60.9181 52.3519 60.9181 54.5168 60.9181C54.0051 58.953 53.9658 56.9879 51.0923 57.3973ZM70.7341 1.26913C69.7501 1.26913 68.766 1.14631 67.782 1.31007C67.2702 1.39195 66.7585 2.00604 66.2862 2.41544C66.6011 2.82483 66.8766 3.60268 67.2702 3.64362C69.0022 3.7255 70.8129 5.15839 72.5842 2.74295C72.7416 2.53825 73.2533 2.66107 73.5289 2.53825C73.8438 2.3745 74.1193 2.08792 74.3948 1.84228C74.1587 1.63758 73.9225 1.22819 73.6469 1.22819C72.7022 1.14631 71.6788 1.18725 70.6948 1.18725C70.7341 1.18725 70.7341 1.22819 70.7341 1.26913Z" fill="#192A59"/>
</svg>
