<svg width="351" height="105" viewBox="0 0 351 105" fill="none" xmlns="http://www.w3.org/2000/svg">
<path d="M33.6381 60.152C45.3741 60.152 53.0061 55.112 54.7341 45.32C55.5981 40.064 54.5901 36.104 51.7101 33.584C48.9021 31.064 46.5261 29.984 42.4221 28.616C39.1821 27.536 37.0221 26.6 35.9421 25.952C34.8621 25.304 34.4301 24.44 34.6461 23.36C35.0061 21.632 36.4461 20.768 38.9661 20.768C42.2781 20.768 44.5821 22.424 45.8061 25.664L57.9741 19.184C54.8061 11.624 48.5421 7.448 39.9021 7.448C34.7181 7.448 30.3261 8.816 26.7261 11.552C23.1261 14.288 20.8941 17.888 20.1021 22.424C18.7341 30.344 22.4781 35.888 31.4061 38.984C32.6301 39.344 35.4381 40.136 36.6621 40.64C37.3101 40.856 37.9581 41.144 38.6781 41.504C40.1181 42.152 40.6941 43.016 40.4781 44.168C40.1181 45.968 38.2461 46.832 34.8621 46.832C30.5421 46.832 27.5901 44.888 26.0781 41.072L13.6221 47.48C15.9981 55.472 22.6941 60.152 33.6381 60.152ZM83.5211 60.152C91.5851 60.152 98.2811 57.632 103.609 52.52C109.009 47.408 112.249 41.36 113.329 34.376C114.409 27.68 112.753 21.056 109.009 15.944C105.265 10.832 98.4971 7.448 90.2171 7.448C82.2251 7.448 75.5291 9.968 70.0571 15.008C64.6571 19.976 61.3451 25.952 60.1931 32.936C58.7531 41.936 61.7051 50.648 69.4811 56.12C73.3691 58.784 78.0491 60.152 83.5211 60.152ZM76.3931 42.584C74.4491 40.208 73.8011 37.328 74.4491 33.8C75.0971 30.272 76.7531 27.392 79.4891 25.088C82.2251 22.712 85.3931 21.56 88.9211 21.56C92.4491 21.56 95.1851 22.712 97.1291 25.088C99.0731 27.392 99.7211 30.272 99.0731 33.8C98.4251 37.328 96.7691 40.208 94.0331 42.584C91.2971 44.888 88.1291 46.04 84.6011 46.04C81.0731 46.04 78.3371 44.888 76.3931 42.584ZM137.665 8.6H123.265L114.409 59H145.369L147.817 45.032H131.257L137.665 8.6ZM175.841 60.152C183.905 60.152 190.601 57.632 195.929 52.52C201.329 47.408 204.569 41.36 205.649 34.376C206.729 27.68 205.073 21.056 201.329 15.944C197.585 10.832 190.817 7.448 182.537 7.448C174.545 7.448 167.849 9.968 162.377 15.008C156.977 19.976 153.665 25.952 152.513 32.936C151.073 41.936 154.025 50.648 161.801 56.12C165.689 58.784 170.369 60.152 175.841 60.152ZM168.713 42.584C166.769 40.208 166.121 37.328 166.769 33.8C167.417 30.272 169.073 27.392 171.809 25.088C174.545 22.712 177.713 21.56 181.241 21.56C184.769 21.56 187.505 22.712 189.449 25.088C191.393 27.392 192.041 30.272 191.393 33.8C190.745 37.328 189.089 40.208 186.353 42.584C183.617 44.888 180.449 46.04 176.921 46.04C173.393 46.04 170.657 44.888 168.713 42.584Z" fill="#243F60"/>
<path d="M46.728 52.6L31.248 73.264L23.688 52.6H9.288L0.432 103H14.832L19.224 77.8L27.432 97.312H28.728L42.84 78.736L38.592 103H52.992L61.848 52.6H46.728ZM86.3336 104.152C94.3976 104.152 101.094 101.632 106.422 96.52C111.822 91.408 115.062 85.36 116.142 78.376C117.222 71.68 115.566 65.056 111.822 59.944C108.078 54.832 101.31 51.448 93.0296 51.448C85.0376 51.448 78.3416 53.968 72.8696 59.008C67.4696 63.976 64.1576 69.952 63.0056 76.936C61.5656 85.936 64.5176 94.648 72.2936 100.12C76.1816 102.784 80.8616 104.152 86.3336 104.152ZM79.2056 86.584C77.2616 84.208 76.6136 81.328 77.2616 77.8C77.9096 74.272 79.5656 71.392 82.3016 69.088C85.0376 66.712 88.2056 65.56 91.7336 65.56C95.2616 65.56 97.9976 66.712 99.9416 69.088C101.886 71.392 102.534 74.272 101.886 77.8C101.238 81.328 99.5816 84.208 96.8456 86.584C94.1096 88.888 90.9416 90.04 87.4136 90.04C83.8856 90.04 81.1496 88.888 79.2056 86.584ZM126.077 52.6L117.221 103H138.101C145.661 103 151.997 100.768 157.181 96.232C162.365 91.696 165.605 85.792 166.901 78.52C168.125 71.392 166.757 65.344 162.797 60.232C158.837 55.12 153.581 52.6 146.957 52.6H126.077ZM152.645 77.8C151.421 84.424 146.381 89.032 140.549 89.032H134.789L138.749 66.568H144.509C150.341 66.568 153.797 71.176 152.645 77.8ZM209.603 52.6H176.843L167.987 103H201.107L203.411 89.752H184.691L185.699 84.136H202.259L204.563 71.176H188.003L188.939 65.704H207.299L209.603 52.6Z" fill="#EBE104"/>
</svg>
