<?xml version="1.0" encoding="utf-8"?>
<!-- Svg Vector Icons : http://www.onlinewebfonts.com/icon -->
<!DOCTYPE svg PUBLIC "-//W3C//DTD SVG 1.1//EN" "http://www.w3.org/Graphics/SVG/1.1/DTD/svg11.dtd">
<svg version="1.1" xmlns="http://www.w3.org/2000/svg" xmlns:xlink="http://www.w3.org/1999/xlink" x="0px" y="0px" viewBox="0 0 16 16" enable-background="new 0 0 1000 1000" xml:space="preserve">
<metadata> Svg Vector Icons : http://www.onlinewebfonts.com/icon </metadata>
<g><g transform="translate(0.000000,511.000000) scale(0.100000,-0.100000)"><path d="M4492.1,4986.6c-1903.9-199.3-3534.3-1512.9-4140-3332.5c-398.7-1196-322-2484,212.1-3628.9c232.6-498.3,572.4-978.8,973.7-1380c1916.7-1916.7,5008.9-1914.1,6925.6,0c1914.1,1916.7,1916.7,5008.9,0,6925.6c-401.3,401.2-881.7,741.1-1380,973.7C6278.5,4920.2,5363.5,5076.1,4492.1,4986.6z M4847.3,3251.4V2152.5h-209.6c-391,0-1558.9,104.8-1602.3,143.1c-20.5,20.4,194.2,575,316.9,817.8c184,357.8,350.1,600.6,575,838.2c316.9,332.2,426.8,388.4,774.3,396.1l145.7,2.5V3251.4z M5570.5,4324.7c339.9-53.7,799.9-559.7,1129.6-1239.4c148.2-301.5,311.8-746.2,286.2-771.8c-43.4-40.9-843.3-127.8-1415.8-150.8l-416.5-17.9v1101.4v1104h135.4C5361,4350.3,5488.8,4340.1,5570.5,4324.7z M3467.3,3913.3c-281.1-378.2-506-815.2-679.8-1313.6c-38.3-112.4-76.7-212.1-86.9-224.9c-38.3-46-812.7,199.3-978.8,311.8l-74.1,48.5l184,209.6c301.5,342.5,805,733.5,1201.1,932.8c191.7,99.7,516.2,240.2,554.6,240.2C3605.3,4120.3,3551.7,4025.7,3467.3,3913.3z M6807.4,3951.6c516.3-240.2,1019.7-615.9,1364.7-1014.6l178.9-207l-148.2-74.1c-176.3-89.4-352.6-153.3-651.7-235.1l-219.8-58.8l-94.5,270.9c-166.1,483-416.6,966-679.8,1300.8c-69,89.4-125.2,166.1-125.2,171.2C6431.8,4125.4,6495.7,4099.8,6807.4,3951.6z M1589,2395.3c161-97.1,396.1-184,728.3-270.9c161-43.4,296.5-81.8,299-84.3c5.1-2.6-23-140.6-56.2-304.1c-35.8-163.6-63.9-327.1-63.9-362.9c0-61.3,7.7-63.9,153.3-63.9c138,0,153.3,5.1,163.6,58.8c7.7,30.7,35.8,176.3,63.9,322c30.7,145.7,58.8,270.9,63.9,278.5c7.7,5.1,204.4-12.8,442.1-43.4c332.2-40.9,1188.3-104.8,1433.7-104.8c23,0,30.7-69,30.7-255.6v-255.6h153.3H5154v253v253l276,15.3c564.8,30.7,1042.7,71.6,1349.4,115c230,30.7,319.4,35.8,327.1,15.3c5.1-15.3,38.3-168.7,69-339.9l61.3-311.8h161h161l-17.9,122.7c-10.2,66.5-43.5,232.6-74.1,370.6l-56.3,247.9l104.8,25.6c383.3,97.1,592.9,168.7,792.2,268.3c265.7,130.3,224.9,150.8,421.7-204.4c153.3-278.5,278.5-580.1,368-907.2c74.1-260.7,145.7-684.9,145.7-861.2V261.4h-587.8h-590.3l7.6-158.4l7.7-161l582.6-7.7l580.1-5.1V-196c0-207-94.6-695.1-194.2-1001.8c-86.9-273.5-362.9-858.7-467.7-991.6l-46-61.3l-112.4,66.4c-161,94.6-460,207-725.8,273.4c-125.2,33.2-240.2,66.5-250.5,76.7c-12.8,10.2,7.7,168.7,43.5,355.2c35.7,184,66.4,347.5,66.4,360.3c0,15.4-71.6,25.6-161,25.6h-158.4l-43.5-247.9c-63.9-365.4-92-447.2-143.1-431.9c-166.1,48.5-1119.3,143.1-1474.5,143.1c-125.2,0-273.5,7.7-324.6,15.4l-97.1,17.9v250.5v253h-153.3h-153.3v-253v-255.6l-132.9-12.8c-74.1-7.7-296.4-20.5-493.2-28.1c-311.8-10.2-592.9-35.8-1139.8-104.8l-143.1-15.3l-56.2,276c-30.7,153.3-61.3,304.1-69,337.3c-10.2,51.1-25.6,56.2-163.6,56.2c-184,0-178.9,17.9-89.4-421.7c33.2-166.1,58.8-309.2,53.7-314.3c-5.1-2.5-135.5-40.9-286.2-81.8c-350.1-92-439.5-125.2-674.7-242.8l-186.5-94.6l-48.6,61.3c-86.9,109.9-375.7,720.7-452.3,953.2C868.3-942.3,784-530.8,766.1-257.4L750.8-45.3h592.9H1934v153.3v153.3h-587.8H758.4v138c0,383.3,194.2,1121.9,408.9,1548.7c117.6,237.7,278.6,511.1,296.5,511.1C1471.4,2459.2,1527.7,2431.1,1589,2395.3z M4847.3-3037.8v-1104l-235.1,17.9c-273.4,17.9-337.3,51.1-615.9,319.4c-306.7,293.9-541.8,656.8-756.4,1160.2c-127.8,299-219.8,552-204.4,567.3c38.3,35.8,1086.1,130.3,1525.7,138l286.2,2.5V-3037.8z M5946.2-1961.9c347.5-25.6,886.8-86.9,1014.5-120.1l56.3-12.8l-89.4-245.3c-209.6-582.7-511.1-1093.8-840.8-1426C5798-4057.5,5706-4106,5399.3-4126.5l-245.3-15.3v1101.4v1104h212.1C5481.1-1936.4,5741.8-1949.2,5946.2-1961.9z M2787.5-2363.2c155.9-475.3,434.4-1019.6,700.2-1362.1c71.6-89.4,125.2-168.7,120.1-176.3c-15.3-12.8-273.4,92-511.1,209.6c-449.8,222.3-950.7,605.7-1267.6,971.1l-176.3,204.5l79.2,48.6c153.3,94.6,805,314.3,955.8,324.6C2703.2-2140.8,2749.2-2240.5,2787.5-2363.2z M8059.7-2368.2c327.1-135.5,322-117.6,112.5-355.2c-406.3-460-1037.5-902.1-1617.7-1132.1c-125.2-48.6-130.3-48.6-94.5-2.6c253,345,347.5,493.2,467.7,720.7c143.1,276,319.4,700.2,370.6,886.8l28.1,104.8l276-71.5C7753-2258.4,7960-2324.8,8059.7-2368.2z"/><path d="M2207.4,678c7.7-38.3,81.8-342.4,161-672.1l143.1-600.6l176.3-7.7l178.9-7.7l46,161c138,480.4,176.3,592.9,196.8,557.1c10.2-20.4,63.9-191.7,117.6-378.2l97.1-339.9l178.9,7.7l178.9,7.7l155.9,664.4l155.9,664.4l-176.3,7.7c-99.7,5.1-186.6-2.5-196.8-12.8c-10.2-10.2-46-168.7-76.7-352.7c-33.2-181.4-66.5-352.7-76.7-380.8c-17.9-51.1-17.9-53.7-155.9,452.3l-79.2,299h-135.4h-132.9l-107.3-380.8c-56.2-207-104.8-393.6-104.8-411.5c0-17.9-7.7-25.6-15.3-17.9c-10.2,10.2-48.6,191.7-84.3,406.3l-69,391l-196.8,7.7l-199.3,7.7L2207.4,678z"/><path d="M4080.7,718.9c0-28.1,235.1-1052.9,283.7-1229.2l25.6-97.1h173.8h173.8l109.9,370.6c61.3,204.4,117.6,362.9,125.2,355.2c7.7-7.7,61.3-171.2,117.6-362.9l102.2-350.1l181.4-7.7l178.9-7.7l145.7,621c81.8,342.5,153.3,646.5,161,679.8c15.3,53.7,10.2,56.2-176.3,56.2c-163.6,0-194.2-7.7-204.4-43.4c-7.7-25.6-38.3-189.1-69-365.4c-30.7-176.3-61.3-337.3-69-357.8c-10.2-33.2-71.5,161-212.1,672.1c-28.1,94.6-28.1,94.6-161,94.6h-132.9l-115-414c-127.8-465.1-115-467.7-204.4,63.9L4456.3,747h-189.1C4152.2,747,4080.7,736.8,4080.7,718.9z"/><path d="M5946.2,729.1c0-7.7,69-306.7,153.3-664.4c84.3-355.2,153.3-651.7,153.3-659.3c0-7.7,81.8-12.8,181.4-7.7l184,7.7l104.8,365.4c56.2,199.4,109.9,362.9,117.5,362.9c7.6,0,33.2-71.5,58.7-161c25.6-86.9,74.1-253,109.9-368l63.9-212.1h176.3c99.7,0,178.9,5.1,178.9,10.2c0,5.1,69,301.6,153.3,661.9c84.3,357.8,153.3,656.8,153.3,667c0,7.7-84.4,15.3-189.1,15.3h-189.1l-53.7-286.2c-28.1-158.4-58.8-337.3-69-398.6c-10.2-58.8-23-102.2-33.2-94.6c-7.7,10.2-61.3,186.5-117.5,391l-102.2,375.7h-138h-138l-107.3-388.5C6539.1,131.1,6485.4-50.4,6477.8-58c-7.6-7.7-25.6,69-43.4,171.2c-15.3,102.2-48.6,286.2-69,411.4L6324.4,747h-189.1C6030.5,747,5946.2,739.3,5946.2,729.1z"/></g></g>
</svg>